<svg xmlns="http://www.w3.org/2000/svg" width="27.741" height="28" viewBox="0 0 27.741 28"><defs><style>.a,.c{fill:#fff;}.b{fill:#d7322d;stroke:#232021;stroke-width:2px;}.c{font-size:9px;font-family:Poppins-SemiBold, Poppins;font-weight:600;}.d{stroke:none;}.e{fill:none;}</style></defs><g transform="translate(-1657.259 -31.045)"><g transform="translate(1657.259 34.38)"><path class="a" d="M20.745,28.336a.971.971,0,0,0-.952.765,1.879,1.879,0,0,1-.375.817,1.417,1.417,0,0,1-1.207.442A1.441,1.441,0,0,1,17,29.918a1.879,1.879,0,0,1-.375-.817.971.971,0,0,0-.952-.765h0a.978.978,0,0,0-.952,1.192,3.35,3.35,0,0,0,3.486,2.782A3.344,3.344,0,0,0,21.7,29.528a.981.981,0,0,0-.952-1.192Z" transform="translate(-8.374 -7.644)"/><path class="a" d="M26.234,21.331c-.949-1.192-2.817-1.891-2.817-7.229,0-5.479-2.54-7.681-4.907-8.21-.222-.053-.382-.123-.382-.346v-.17a1.476,1.476,0,0,0-1.48-1.445h-.037a1.476,1.476,0,0,0-1.48,1.445v.17c0,.217-.16.294-.382.346-2.373.534-4.907,2.731-4.907,8.21,0,5.338-1.868,6.031-2.817,7.229A1.163,1.163,0,0,0,8,23.2H25.272A1.163,1.163,0,0,0,26.234,21.331Zm-2.4.341H9.453a.257.257,0,0,1-.2-.429,7.08,7.08,0,0,0,1.295-1.961,12.743,12.743,0,0,0,.882-5.179A8.674,8.674,0,0,1,12.714,9,3.965,3.965,0,0,1,15.1,7.383a2.187,2.187,0,0,0,1.147-.617.5.5,0,0,1,.734-.012,2.263,2.263,0,0,0,1.159.628A3.965,3.965,0,0,1,20.525,9a8.674,8.674,0,0,1,1.288,5.1,12.743,12.743,0,0,0,.882,5.179,7.165,7.165,0,0,0,1.325,1.991A.242.242,0,0,1,23.83,21.671Z" transform="translate(-6.775 -3.93)"/></g><g class="b" transform="translate(1667 31.045)"><circle class="d" cx="9" cy="9" r="9"/><circle class="e" cx="9" cy="9" r="8"/></g><text class="c" transform="translate(1672 43.045)"><tspan x="0" y="0">12</tspan></text></g></svg>