<svg xmlns="http://www.w3.org/2000/svg" width="24.946" height="24.946" viewBox="0 0 24.946 24.946"><defs><style>.a{fill:#d7322d;}</style></defs><path class="a" d="M12.473,24.946A12.473,12.473,0,1,1,24.946,12.473,12.487,12.487,0,0,1,12.473,24.946Zm0-23.164A10.691,10.691,0,1,0,23.164,12.473,10.7,10.7,0,0,0,12.473,1.782Zm0,0"/><path class="a" d="M155.453,156.288a.83.83,0,0,1-.589-.244l-8.333-8.333a.833.833,0,1,1,1.178-1.178l8.333,8.333a.833.833,0,0,1-.589,1.423Zm0,0" transform="translate(-139.34 -139.287)"/><path class="a" d="M147.177,156.977a.891.891,0,0,1-.63-1.521l8.909-8.909a.891.891,0,0,1,1.26,1.26l-8.909,8.909A.888.888,0,0,1,147.177,156.977Zm0,0" transform="translate(-139.159 -139.158)"/></svg>