<svg xmlns="http://www.w3.org/2000/svg" width="88.518" height="88.52" viewBox="0 0 88.518 88.52"><defs><style>.a{fill:#1bbeb9;}</style></defs><path class="a" d="M182.463,200.506a2.669,2.669,0,0,1-3.667,0l-3.984-3.984-3.667,3.667,9.484,9.484,19.858-19.858-3.67-3.667Z" transform="translate(-141.557 -153.966)"/><path class="a" d="M84.375,26.49a34.818,34.818,0,0,0-6.511-4.678A34.82,34.82,0,0,0,76.033,14a2.594,2.594,0,0,0-1.509-1.509,34.821,34.821,0,0,0-7.808-1.831A34.912,34.912,0,0,0,62.038,4.15a2.313,2.313,0,0,0-1.975-.816,34.745,34.745,0,0,0-7.914,1.3,40.947,40.947,0,0,0-6.813-4.4,2.58,2.58,0,0,0-2.137,0,40.924,40.924,0,0,0-6.813,4.4,34.748,34.748,0,0,0-7.914-1.3A2.287,2.287,0,0,0,26.5,4.15a34.9,34.9,0,0,0-4.678,6.514,34.821,34.821,0,0,0-7.808,1.831A2.594,2.594,0,0,0,12.5,14a34.821,34.821,0,0,0-1.831,7.808A34.912,34.912,0,0,0,4.156,26.49a2.6,2.6,0,0,0-.816,1.975,34.745,34.745,0,0,0,1.3,7.914,40.932,40.932,0,0,0-4.4,6.813,2.6,2.6,0,0,0,0,2.137,40.924,40.924,0,0,0,4.4,6.813,34.748,34.748,0,0,0-1.3,7.914,2.6,2.6,0,0,0,.816,1.975,34.9,34.9,0,0,0,6.514,4.678A34.821,34.821,0,0,0,12.5,74.517a2.592,2.592,0,0,0,1.512,1.509,34.778,34.778,0,0,0,7.805,1.831A34.8,34.8,0,0,0,26.5,84.369a2.457,2.457,0,0,0,1.975.818,34.715,34.715,0,0,0,7.912-1.3,41.2,41.2,0,0,0,6.815,4.4,2.594,2.594,0,0,0,2.138,0,41.117,41.117,0,0,0,6.813-4.4,34.748,34.748,0,0,0,7.914,1.3,2.432,2.432,0,0,0,1.975-.818,34.818,34.818,0,0,0,4.678-6.511,34.778,34.778,0,0,0,7.805-1.831,2.592,2.592,0,0,0,1.512-1.509,34.82,34.82,0,0,0,1.831-7.808,34.8,34.8,0,0,0,6.511-4.678,2.583,2.583,0,0,0,.818-1.975,34.745,34.745,0,0,0-1.3-7.914,40.931,40.931,0,0,0,4.4-6.813,2.6,2.6,0,0,0,0-2.137,40.924,40.924,0,0,0-4.4-6.813,34.748,34.748,0,0,0,1.3-7.914A2.584,2.584,0,0,0,84.375,26.49ZM64.439,37.684,40.914,61.209a2.592,2.592,0,0,1-3.667,0L24.1,48.057a2.593,2.593,0,0,1,0-3.667l7.334-7.334a2.593,2.593,0,0,1,3.667,0l3.984,3.984L53.435,26.682a2.593,2.593,0,0,1,3.667,0l7.337,7.334A2.593,2.593,0,0,1,64.439,37.684Z" transform="translate(-0.008 0)"/></svg>