<svg xmlns="http://www.w3.org/2000/svg" width="26.58" height="21.362" viewBox="0 0 26.58 21.362"><path d="M23.081,50.25H7.112a3.5,3.5,0,0,0-3.5,3.5v.473H3.5A3.5,3.5,0,0,0,0,57.72V68.114a3.5,3.5,0,0,0,3.5,3.5H19.467a3.5,3.5,0,0,0,3.5-3.5v-.473h.115a3.5,3.5,0,0,0,3.5-3.5V53.749a3.5,3.5,0,0,0-3.5-3.5ZM21.409,68.114a1.943,1.943,0,0,1-1.941,1.941H3.5a1.943,1.943,0,0,1-1.941-1.941v-8.7H21.409Zm0-10.253H1.557V59.75H21.409Zm0,.332H1.557V57.72A1.943,1.943,0,0,1,3.5,55.779H19.467a1.943,1.943,0,0,1,1.941,1.941Zm3.614,5.95a1.943,1.943,0,0,1-1.941,1.941h-.115V57.72a3.5,3.5,0,0,0-3.5-3.5H5.171v-.473a1.943,1.943,0,0,1,1.941-1.941H23.081a1.943,1.943,0,0,1,1.941,1.941Z" transform="translate(0 -50.25)"/><path d="M72.668,351.25h6.853v1.557H72.668Z" transform="translate(-68.896 -335.624)"/><path d="M314.667,351.25h2.858v1.557h-2.858Z" transform="translate(-298.332 -335.624)"/></svg>