<svg xmlns="http://www.w3.org/2000/svg" xmlns:xlink="http://www.w3.org/1999/xlink" width="852.157" height="702.007" viewBox="0 0 852.157 702.007"><defs><style>.a{fill:#d0cde1;}.b{fill:#3f3d56;}.c{fill:#2f2e41;}.d{fill:#a0616a;}.e{fill:#fdf5f3;}.f{fill:url(#a);}.g{opacity:0.15;}.h{fill:#fff;}.i{opacity:0.3;}.j{fill:#263238;}.k{fill:#fafafa;}.l{fill:#455a64;}.m{fill:#1bbeb9;}.n{opacity:0.998;}</style><linearGradient id="a" x1="0.114" y1="0.067" x2="0.805" y2="0.897" gradientUnits="objectBoundingBox"><stop offset="0" stop-color="#da3733"/><stop offset="1" stop-color="#e06135"/></linearGradient></defs><g transform="translate(-49.843 0)"><path class="a" d="M965.712,741.859c-.066-.289-6.423-29.279,6.56-53.356s40.7-34.694,40.975-34.8l1.267-.475.3,1.32c.066.289,6.423,29.279-6.56,53.356s-40.7,34.694-40.975,34.8l-1.267.475Zm47.065-85.409c-5.551,2.388-27.46,12.839-38.426,33.174s-7.658,44.387-6.6,50.334c5.549-2.382,27.449-12.817,38.426-33.174,10.966-20.336,7.658-44.383,6.6-50.334Z" transform="translate(-171 -88.996)"/><path class="a" d="M998.331,699.459C975,713.5,966.015,741.377,966.015,741.377s28.842,5.123,52.173-8.914,32.317-41.918,32.317-41.918S1021.663,685.422,998.331,699.459Z" transform="translate(-171 -88.996)"/><path class="b" d="M491.419,615c-2.774,0-5.577-.044-8.328-.13l.063-2c3.95.123,7.981.157,11.95.1l.027,2Q493.277,615,491.419,615Zm15.745-.464-.117-2c3.956-.233,7.963-.562,11.909-.975l.209,1.988C515.188,613.967,511.151,614.3,507.164,614.532Zm-36.1-.312c-3.989-.306-8.021-.706-11.982-1.192l.244-1.984c3.932.481,7.932.88,11.891,1.183Zm60.039-2.2-.3-1.977c3.931-.6,7.892-1.289,11.77-2.06l.39,1.961C539.058,610.723,535.068,611.421,531.107,612.022Zm-83.935-.731c-3.941-.668-7.919-1.436-11.823-2.283l.424-1.955c3.875.842,7.822,1.6,11.733,2.266Zm107.548-3.962-.48-1.941c3.858-.954,7.738-2.009,11.532-3.134l.568,1.918C562.517,605.3,558.608,606.367,554.72,607.328Zm-131.076-1.146c-3.866-1.028-7.756-2.159-11.562-3.363l.6-1.906c3.778,1.194,7.638,2.316,11.474,3.336Zm154.158-5.7-.656-1.889c3.744-1.3,7.51-2.709,11.194-4.184l.742,1.857C585.371,597.751,581.576,599.169,577.8,600.481Zm-177.146-1.566c-3.754-1.38-7.532-2.869-11.228-4.426l.776-1.844c3.667,1.545,7.416,3.022,11.142,4.393Zm199.475-7.368-.828-1.82c3.6-1.634,7.21-3.378,10.742-5.184l.91,1.781C607.4,588.143,603.754,589.9,600.131,591.546Zm21.4-10.938-.99-1.736c3.448-1.968,6.891-4.036,10.229-6.148l1.068,1.689C628.473,576.541,625.005,578.626,621.53,580.608Zm20.323-12.857-1.145-1.639c3.247-2.269,6.487-4.645,9.631-7.061l1.219,1.586C648.391,563.072,645.126,565.465,641.853,567.75Zm-304.826-2.816c-3.228-2.345-6.453-4.8-9.585-7.3l1.248-1.562c3.108,2.481,6.309,4.919,9.512,7.245Zm323.9-11.846-1.289-1.529c3.026-2.554,6.038-5.215,8.953-7.91l1.357,1.469C667.015,547.833,663.98,550.515,660.93,553.088ZM318.2,549.9c-3.006-2.633-5.993-5.371-8.877-8.14l1.385-1.443c2.862,2.748,5.826,5.466,8.81,8.079Zm360.4-13.161-1.424-1.4c2.79-2.827,5.55-5.753,8.2-8.7l1.486,1.338c-2.672,2.966-5.452,5.913-8.264,8.762ZM300.83,533.23c-2.758-2.9-5.482-5.9-8.1-8.91l1.511-1.311c2.594,2.989,5.3,5.964,8.035,8.842Zm393.893-14.38-1.545-1.27c2.521-3.067,5-6.232,7.378-9.409l1.6,1.2C699.764,512.57,697.263,515.76,694.723,518.85Zm-409.671-3.8c-2.477-3.13-4.916-6.361-7.25-9.6l1.623-1.168c2.316,3.218,4.736,6.425,7.195,9.532Zm424.1-15.5-1.654-1.123c2.23-3.284,4.415-6.664,6.492-10.048l1.705,1.047C713.6,492.841,711.4,496.247,709.152,499.556ZM271,495.527c-2.179-3.341-4.312-6.778-6.34-10.22l1.723-1.016c2.013,3.415,4.129,6.827,6.292,10.142Zm450.766-16.511-1.75-.967c1.92-3.475,3.785-7.043,5.546-10.606l1.793.887c-1.773,3.59-3.654,7.186-5.589,10.687Zm10.681-21.621-1.832-.8c1.594-3.64,3.124-7.367,4.549-11.078l1.867.717c-1.436,3.74-2.979,7.5-4.584,11.164Zm-483.9-4.315c-1.533-3.68-3-7.444-4.364-11.19l1.88-.684c1.352,3.718,2.809,7.453,4.33,11.1ZM741.1,434.864l-1.9-.629c1.248-3.761,2.426-7.6,3.5-11.426l1.926.541c-1.083,3.851-2.27,7.725-3.527,11.514Zm-500.767-4.383c-1.19-3.812-2.308-7.705-3.323-11.574l1.935-.508c1.007,3.84,2.117,7.7,3.3,11.486Zm507.286-18.795-1.948-.453c.9-3.854,1.714-7.791,2.434-11.7l1.967.361C749.342,403.834,748.517,407.8,747.615,411.686Zm-513.394-4.494c-.834-3.906-1.589-7.886-2.243-11.83l1.973-.328c.65,3.915,1.4,7.864,2.227,11.74Zm517.752-19.184-1.982-.271c.538-3.917.992-7.911,1.351-11.872l1.992.18C752.972,380.036,752.514,384.061,751.973,388.008Zm-521.694-4.566c-.472-3.959-.859-7.991-1.151-11.984l2-.146c.29,3.964.674,7.965,1.143,11.895Zm523.869-19.409-2-.09c.178-3.963.269-7.982.269-11.946h2C754.419,355.99,754.328,360.04,754.148,364.032Zm-525.626-4.6c-.068-2.452-.1-4.954-.1-7.435q0-2.309.04-4.608l2,.035q-.04,2.282-.04,4.573c0,2.462.035,4.945.1,7.38Zm2.411-23.948-2-.125c.25-4,.594-8.032,1.023-12l1.988.215c-.426,3.935-.768,7.94-1.016,11.906Zm520.194-12.2c-.4-3.943-.949-5.865-1.529-9.791l1.979-.292c.584,3.956,1.085,6.975,1.488,10.948ZM233.505,311.73l-1.977-.306c.613-3.957,1.325-7.944,2.116-11.854l1.96.4c-.785,3.88-1.492,7.837-2.1,11.763ZM747.58,301.715c-.763-3.9-1.623-7.829-2.559-11.672l1.943-.473c.942,3.873,1.81,7.831,2.578,11.761Zm-509.337-13.4-1.94-.486c.971-3.874,2.047-7.779,3.2-11.609l1.915.575C240.274,280.594,239.207,284.469,238.243,288.313ZM741.927,278.5c-1.115-3.808-2.334-7.639-3.622-11.387l1.891-.65c1.3,3.777,2.527,7.638,3.651,11.475Zm-496.8-13.1-1.887-.663c1.329-3.781,2.764-7.58,4.265-11.291l1.854.75C247.871,257.878,246.446,261.648,245.128,265.4ZM734.161,255.9c-1.459-3.681-3.021-7.375-4.645-10.979l1.824-.821c1.636,3.633,3.21,7.355,4.68,11.063ZM254.1,243.2l-1.817-.835c1.67-3.638,3.448-7.286,5.284-10.842l1.777.917C257.526,235.972,255.762,239.592,254.1,243.2Zm470.269-9.036c-1.79-3.531-3.687-7.069-5.637-10.515l1.74-.985c1.966,3.473,3.876,7.038,5.68,10.6ZM265.081,221.937l-1.733-1c2-3.464,4.1-6.932,6.254-10.306l1.686,1.076C269.149,215.058,267.061,218.5,265.081,221.937ZM712.623,213.4c-2.113-3.364-4.326-6.716-6.577-9.962l1.643-1.14c2.269,3.271,4.5,6.648,6.628,10.038ZM277.954,201.779l-1.635-1.152c2.306-3.27,4.716-6.529,7.167-9.687l1.58,1.226C282.635,195.3,280.242,198.533,277.954,201.779Zm421.064-7.992c-2.41-3.157-4.92-6.295-7.462-9.327l1.533-1.285c2.561,3.056,5.09,6.217,7.519,9.4Zm-406.411-10.9-1.522-1.3c2.587-3.039,5.284-6.064,8.015-8.991l1.462,1.364C297.852,176.869,295.176,179.871,292.607,182.887Zm391.07-7.408c-2.687-2.924-5.474-5.823-8.282-8.614l1.41-1.419c2.83,2.813,5.638,5.733,8.345,8.679ZM308.912,165.415l-1.4-1.43c2.86-2.8,5.819-5.564,8.8-8.221l1.332,1.492c-2.954,2.637-5.891,5.382-8.729,8.159Zm357.818-6.78c-2.944-2.67-5.984-5.3-9.035-7.828l1.275-1.541c3.073,2.543,6.137,5.2,9.1,7.888Zm-340-9.132-1.263-1.551c3.093-2.519,6.29-5,9.5-7.384l1.191,1.606c-3.188,2.363-6.361,4.829-9.431,7.329Zm19.182-14.217-1.116-1.659c3.311-2.228,6.719-4.409,10.13-6.484l1.039,1.709c-3.385,2.06-6.768,4.225-10.053,6.435Zm20.388-12.4-.96-1.755c3.5-1.917,7.094-3.776,10.674-5.527l.879,1.8C373.34,119.137,369.776,120.983,366.3,122.885Zm241.37-4.634c-3.559-1.773-7.2-3.486-10.835-5.091l.809-1.829c3.659,1.617,7.333,3.343,10.919,5.13Zm-219.948-5.844-.795-1.835c3.66-1.586,7.4-3.108,11.128-4.522l.71,1.87C395.07,109.323,391.355,110.833,387.722,112.407Zm198.052-3.834c-3.7-1.436-7.493-2.806-11.266-4.072l.637-1.9c3.8,1.276,7.62,2.656,11.352,4.1Zm-175.743-4.637-.623-1.9c3.8-1.246,7.679-2.419,11.525-3.486l.535,1.927C417.65,101.535,413.8,102.7,410.031,103.936Zm153.063-2.974c-3.814-1.087-7.705-2.1-11.563-3.01l.459-1.946c3.889.916,7.809,1.937,11.653,3.032ZM433.053,97.547l-.445-1.95c3.9-.89,7.866-1.7,11.8-2.41l.355,1.968C440.858,95.859,436.919,96.663,433.053,97.547ZM539.84,95.48c-3.895-.731-7.861-1.381-11.791-1.933l.277-1.98c3.96.556,7.958,1.211,11.883,1.948ZM456.565,93.3l-.265-1.982c3.959-.528,7.985-.973,11.967-1.319l.174,1.992C464.49,92.339,460.495,92.779,456.565,93.3Zm59.616-1.147c-3.939-.371-7.949-.657-11.919-.849l.1-2c4,.194,8.039.482,12.009.856Zm-35.814-.929-.084-2c3.676-.153,7.422-.231,11.136-.232h.905l-.006,2h-.9C487.733,91,484.014,91.075,480.367,91.227Z" transform="translate(-171 -88.996)"/><rect class="b" width="733" height="2" transform="translate(169 652.292)"/><path class="c" d="M769.011,405.021l10,155s24,61,23,119c0,0-9,23-2,27s11,7,7,10-7,10-4,12,4,5,3,5h-30s6-15-3-19-4-14-4-14l-67-196-53,180s9,6,2,9-10-3-7,3-1,9-1,10-30-3-30-3,15-13,8-16-10-6-8-8,10-21,10-21,4-72,5-75,0-17,0-24-1-35,2-42,6-93,22-103S769.011,405.021,769.011,405.021Z" transform="translate(-171 -88.996)"/><path class="c" d="M642.011,701.021s20,41,6,46-32,1-36,7-48,13-49-2,48-43,48-43l6.383-10.278Z" transform="translate(-171 -88.996)"/><path class="c" d="M804.011,731.021s20,41,6,46-32,1-36,7-48,13-49-2,48-43,48-43l6.383-10.278Z" transform="translate(-171 -88.996)"/><circle class="d" cx="33" cy="33" r="33" transform="translate(507.511 61.525)"/><path class="d" d="M563.011,112.025l-4,29-30,23-8-11v-38Z"/><path class="b" d="M687.011,238.021s31,3,47-8l32,189s-113,9-118,3v-59l20-96Z" transform="translate(-171 -88.996)"/><path class="a" d="M731.257,220.985l10.754,9.036s44,7,41,19l-12,142,4,48s-34-9-60,0-5.344-193.4-5.344-193.4S733.5,223.949,731.257,220.985Z" transform="translate(-171 -88.996)"/><path class="a" d="M692.011,231.931s-32,23.091-36,38.091-17,173-17,173,6-3,9,2S697.011,239.84,692.011,231.931Z" transform="translate(-171 -88.996)"/><path class="c" d="M678.527,182.084s-3.572-5.359-2.2-11.13a33.734,33.734,0,0,0,.962-10.03s2.885-9.343,5.771-14.565,1.511-7.42,10.58-9.069,5.359-13.465,29.267-.687a7.011,7.011,0,0,0,7.282,2.748c4.946-.962,6.733,5.908,6.733,5.908s3.3-1.924,4.534.824,10.054-1.649,10.054,16.9S741.477,198.1,741.477,198.1s.736-31.2-15.615-34.362-33.938-12.366-38.2-.55a90.081,90.081,0,0,1-9.137,18.893Z" transform="translate(-171 -88.996)"/><ellipse class="d" cx="3.225" cy="4.3" rx="3.225" ry="4.3" transform="translate(567.61 91.906)"/><path class="e" d="M606.3,494.446c-7.913-4.758-17.454-4.395-21.081-4.032,1.381,3.372,5.526,11.974,13.439,16.735,7.932,4.771,17.461,4.4,21.082,4.035C618.36,507.813,614.215,499.208,606.3,494.446Z" transform="translate(-171 -88.996)"/><path class="e" d="M643.484,588.87H594.028a11.128,11.128,0,1,0,0,22.255h49.456a11.128,11.128,0,0,0,0-22.255Z" transform="translate(-171 -88.996)"/><path class="f" d="M867.438,471.412H590.154a24.563,24.563,0,0,0-24.562,24.563v135.1a24.562,24.562,0,0,0,24.563,24.563H867.438A24.562,24.562,0,0,0,892,631.073v-135.1a24.562,24.562,0,0,0-24.562-24.562ZM583.293,488.167c.548-.1,13.532-2.309,24.283,4.161s14.881,18.976,15.052,19.5l.435,1.349-1.4.247a37.038,37.038,0,0,1-6.017.442c-4.883,0-11.958-.808-18.266-4.6-10.751-6.467-14.881-18.975-15.051-19.5l-.435-1.349ZM643.484,613.6H594.028a13.6,13.6,0,1,1,0-27.2h49.456a13.6,13.6,0,1,1,0,27.2Zm225.025-2.473a14.881,14.881,0,0,1-14.837,14.837H816.58a14.88,14.88,0,0,1-14.837-14.837V588.87a14.88,14.88,0,0,1,14.837-14.837h37.092a14.88,14.88,0,0,1,14.837,14.837Z" transform="translate(-171 -88.996)"/><path class="a" d="M828.326,606.8H812.253a4.327,4.327,0,0,0,0,8.655h16.073a4.327,4.327,0,0,0,0-8.655Zm0,6.182H812.253a1.855,1.855,0,1,1,0-3.709h16.073a1.855,1.855,0,0,1,0,3.709Z" transform="translate(-171 -88.996)"/><path class="a" d="M858,606.8H841.926a4.327,4.327,0,0,0,0,8.655H858a4.327,4.327,0,0,0,0-8.655Zm0,6.182H841.926a1.855,1.855,0,0,1,0-3.709H858a1.855,1.855,0,1,1,0,3.709Z" transform="translate(-171 -88.996)"/><path class="a" d="M828.326,595.67H812.253a4.327,4.327,0,0,0,0,8.655h16.073a4.327,4.327,0,0,0,0-8.655Zm0,6.182H812.253a1.855,1.855,0,0,1,0-3.709h16.073a1.855,1.855,0,0,1,0,3.709Z" transform="translate(-171 -88.996)"/><path class="a" d="M858,595.67H841.926a4.327,4.327,0,0,0,0,8.655H858a4.327,4.327,0,0,0,0-8.655Zm0,6.182H841.926a1.855,1.855,0,0,1,0-3.709H858a1.855,1.855,0,0,1,0,3.709Z" transform="translate(-171 -88.996)"/><path class="a" d="M828.326,584.542H812.253a4.327,4.327,0,0,0,0,8.655h16.073a4.327,4.327,0,0,0,0-8.655Zm0,6.182H812.253a1.855,1.855,0,0,1,0-3.709h16.073a1.855,1.855,0,0,1,0,3.709Z" transform="translate(-171 -88.996)"/><path class="a" d="M858,584.542H841.926a4.327,4.327,0,0,0,0,8.655H858a4.327,4.327,0,0,0,0-8.655Zm0,6.182H841.926a1.855,1.855,0,0,1,0-3.709H858a1.855,1.855,0,0,1,0,3.709Z" transform="translate(-171 -88.996)"/><path class="d" d="M780.011,441.021l-7.168,23.391s-1.832,43.609-25.832,37.609,7-57,7-57l7-11Z" transform="translate(-171 -88.996)"/><path class="d" d="M644.011,441.021l-7.168,23.391s-1.832,43.609-25.832,37.609,7-57,7-57l7-11Z" transform="translate(-171 -88.996)"/><path class="a" d="M775.011,242.021s16-4,21,23,11,104,11,104l-24,81s-24-13-29-11L772.9,368.7l-15.886-71.679S771.011,242.021,775.011,242.021Z" transform="translate(-171 -88.996)"/><path class="g" d="M580.747,209.393l21,70-21,71,12-71Z"/><path class="a" d="M656.011,297.021l-36,142S639,445.289,646,450.289Z" transform="translate(-171 -88.996)"/></g><g transform="translate(0 188.492)"><path class="f" d="M224,103.726a7.559,7.559,0,1,1,6.983,8.079A7.559,7.559,0,0,1,224,103.726Z" transform="translate(-108.936 -43.049)"/><g transform="translate(119.998 56.76)"><path class="h" d="M230.629,100.506l.055-1h.9l-.055.974a4.216,4.216,0,0,1,2.213.841l-.553,1.107a3.674,3.674,0,0,0-1.7-.73l-.089,1.483c.985.31,2.069.708,1.992,1.981,0,.952-.8,1.715-2.213,1.793v1l-.9-.055v-.974a4.006,4.006,0,0,1-1.782-.653l.509-1.107a3.829,3.829,0,0,0,1.339.553l.1-1.527c-.985-.288-2.058-.686-1.981-1.948C228.482,101.358,229.213,100.595,230.629,100.506Zm.642,3.973-.077,1.273c.487-.077.686-.332.708-.62S231.67,104.667,231.271,104.479Zm-1.405-2.213c0,.31.232.5.609.653l.066-1.228c-.443.066-.653.288-.664.575Z" transform="translate(-228.456 -99.51)"/></g><g class="i" transform="translate(116.733 61.453)"><path d="M225.6,103.75a3.212,3.212,0,0,1,.1.708,6.208,6.208,0,0,0,.531,1.8,6.4,6.4,0,0,0,.686,1.107,5.885,5.885,0,0,0,1.107,1.029,5.711,5.711,0,0,0,.664.432,4.737,4.737,0,0,0,.764.343,5.122,5.122,0,0,0,.83.243,5.7,5.7,0,0,0,.885.1,5.867,5.867,0,0,0,.885,0,5.134,5.134,0,0,0,.841-.155,5.532,5.532,0,0,0,.786-.288,3.93,3.93,0,0,0,.708-.376,5.712,5.712,0,0,0,1.107-.93,7.027,7.027,0,0,0,.775-1.04,6.1,6.1,0,0,0,.675-1.76,3.32,3.32,0,0,1,.166-.686,1.815,1.815,0,0,1,0,.719,5.533,5.533,0,0,1-.587,1.87,5.335,5.335,0,0,1-.775,1.107,5.777,5.777,0,0,1-1.2,1.029,5.532,5.532,0,0,1-.753.421,5.056,5.056,0,0,1-.841.31,5,5,0,0,1-.919.188,6.787,6.787,0,0,1-.952,0,5.467,5.467,0,0,1-.952-.122,5.968,5.968,0,0,1-.9-.255,6.055,6.055,0,0,1-.808-.387,6.752,6.752,0,0,1-.719-.476,6.253,6.253,0,0,1-1.107-1.107,6.641,6.641,0,0,1-.675-1.2,5.455,5.455,0,0,1-.421-1.926A1.9,1.9,0,0,1,225.6,103.75Z" transform="translate(-225.506 -103.75)"/></g><path class="j" d="M225.587,103.79a10.29,10.29,0,0,0,.111,1.428,5.854,5.854,0,0,0,1.848,3.32,5.611,5.611,0,0,0,5.312,1.217A5.777,5.777,0,0,0,233.665,99a5.611,5.611,0,0,0-5.445.421,5.843,5.843,0,0,0-2.313,3,10.741,10.741,0,0,0-.321,1.383,4.428,4.428,0,0,1,.232-1.405,5.9,5.9,0,0,1,2.313-3.121,5.8,5.8,0,0,1,5.622-.476,5.987,5.987,0,0,1-.83,11.155,5.732,5.732,0,0,1-5.533-1.295,5.865,5.865,0,0,1-1.826-3.42A4.515,4.515,0,0,1,225.587,103.79Z" transform="translate(-108.772 -42.88)"/><path class="h" d="M233,97.45a2.025,2.025,0,0,1,.83.255,6.064,6.064,0,0,1,1.737,1.173,6.186,6.186,0,0,1,1.273,1.671,2.534,2.534,0,0,1,.31.808,11.155,11.155,0,0,0-1.737-2.313A10.68,10.68,0,0,0,233,97.45Z" transform="translate(-107.974 -42.969)"/><path class="h" d="M231.9,97.083a.558.558,0,0,1,.354,0c.177.066.3.133.288.2s-.177.066-.354,0S231.878,97.149,231.9,97.083Z" transform="translate(-108.091 -43.012)"/><path class="k" d="M321.383,284.587V272.325h3.132a3.652,3.652,0,1,0,0-7.3h-3.132V260.8h3.132a3.663,3.663,0,0,0,0-7.315h-3.132v-6.12H143.453v6.12h-3.132a3.663,3.663,0,0,0,0,7.315h3.132v4.216h-3.132a3.652,3.652,0,0,0,0,7.3h3.132v10.535h0a23.163,23.163,0,0,0-23.163,23.163V464.975a31.8,31.8,0,0,0,31.772,31.739H312.74a31.8,31.8,0,0,0,31.806-31.739V307.827a23.163,23.163,0,0,0-23.163-23.24Z" transform="translate(-119.996 -26.977)"/><path class="j" d="M321.411,284.611s.841,0,2.435.1a24.479,24.479,0,0,1,6.883,1.8,22.883,22.883,0,0,1,4.548,2.645,22.135,22.135,0,0,1,4.526,4.427,23.362,23.362,0,0,1,4.847,14.807c0,23.838.055,58.31.089,100.906v55.776a35.877,35.877,0,0,1-.376,4.615,32.909,32.909,0,0,1-1,4.559c-.221.741-.52,1.472-.786,2.213a15.488,15.488,0,0,1-.93,2.158,35.412,35.412,0,0,1-2.313,4.15,35.876,35.876,0,0,1-2.977,3.741,30.6,30.6,0,0,1-7.514,6.087,31.9,31.9,0,0,1-9.13,3.608,42.562,42.562,0,0,1-9.96.786H157.126c-3.873,0-7.857.144-11.742-.719a31.453,31.453,0,0,1-10.934-4.593,32.171,32.171,0,0,1-13.512-19.3c-1-3.94-.919-8.057-.907-12.074V306.335c0-.9.089-1.793.122-2.689a14.316,14.316,0,0,1,.443-2.656,23.86,23.86,0,0,1,4.582-9.573,23.605,23.605,0,0,1,18.293-8.8l-.266.266V272.349l.255.266h-2.213a5.533,5.533,0,0,1-2.3-.277,3.907,3.907,0,0,1,.122-7.326,6.386,6.386,0,0,1,2.213-.232h2.213l-.255.266v-4.216l.255.255h-2.213a5.535,5.535,0,0,1-2.313-.288,3.907,3.907,0,0,1,.144-7.315,6.375,6.375,0,0,1,2.213-.221h2.213l-.243.255V247.15h.243l177.93.111h.133v6.253l-.133-.133H324.1a4.117,4.117,0,0,1,2.457.553,3.774,3.774,0,0,1-1.228,6.917,11.883,11.883,0,0,1-1.97.066h-1.948l.111-.1v4.216l-.1-.1h2.844a3.873,3.873,0,0,1,2.534.764,3.73,3.73,0,0,1-1.881,6.7h-3.5l.066-.066c0,8.2-.066,11.819-.066,12.251,0-.432,0-4.05-.066-12.251v-.055H324.9a3.575,3.575,0,0,0,1.782-6.408,3.641,3.641,0,0,0-2.424-.719h-2.944v-4.427H323.3a12.346,12.346,0,0,0,1.926-.078,3.53,3.53,0,0,0,1.107-6.485,3.917,3.917,0,0,0-2.324-.52h-2.756v-6.242l.133.133-177.93.122.255-.255v6.374H141.29a6.065,6.065,0,0,0-2.081.188,3.442,3.442,0,0,0-2.28,3.121,3.386,3.386,0,0,0,2.147,3.242,5.114,5.114,0,0,0,2.125.243h2.523V265.3h-2.446a5.8,5.8,0,0,0-2.081.2,3.386,3.386,0,0,0-.111,6.352,5.28,5.28,0,0,0,2.114.243h2.523v11.078h-.277A22.919,22.919,0,0,0,121.1,301.1c-.2.852-.288,1.726-.432,2.6a17.427,17.427,0,0,0-.122,2.634v154a48.2,48.2,0,0,0,.9,11.941,31.574,31.574,0,0,0,13.28,18.946,30.677,30.677,0,0,0,10.746,4.515c3.807.852,7.747.7,11.62.719H309.847a41.933,41.933,0,0,0,9.816-.786,31.184,31.184,0,0,0,9-3.53,30.319,30.319,0,0,0,7.393-5.987A34.634,34.634,0,0,0,339,482.472a35.2,35.2,0,0,0,2.28-4.084,15.15,15.15,0,0,0,.919-2.136c.255-.73.553-1.439.775-2.213a31.633,31.633,0,0,0,.985-4.493,56.713,56.713,0,0,0,.387-9.086V409.233c0-42.6.066-77.068.088-100.906a23.24,23.24,0,0,0-4.792-14.708,22.243,22.243,0,0,0-4.482-4.427,23.241,23.241,0,0,0-4.5-2.656,24.932,24.932,0,0,0-6.85-1.848Z" transform="translate(-120.025 -27.001)"/><path class="h" d="M286.622,403.689a30.035,30.035,0,1,1,16.6-39.043,30.035,30.035,0,0,1-16.6,39.043Z" transform="translate(-106.66 -16.477)"/><g class="i" transform="translate(151.996 348.341)"><path d="M262.416,381.505l-3.674,1.538-1.372-3.32,3.575-1.505a16.822,16.822,0,0,1-.808-9.274l4.759.122a14.387,14.387,0,0,0,.343,7.348l5.533-2.3c-.653-4.017-1.107-8.588,3.552-10.558,3.475-1.461,7.525-.188,10.292,4.748l3.641-1.527,1.372,3.32-3.575,1.505a16.091,16.091,0,0,1,.8,7.5l-4.725.055a14.785,14.785,0,0,0-.4-5.744l-5.533,2.346c.675,4,1.107,8.51-3.486,10.458C269.2,387.647,265.205,386.4,262.416,381.505Zm13.125-9.373,4.659-1.959c-1.107-1.571-2.357-1.859-3.442-1.406s-1.361,1.726-1.217,3.364Zm-5.533,8.964c1.107-.476,1.372-1.693,1.273-3.32l-4.526,1.9c1.04,1.494,2.2,1.859,3.254,1.417Z" transform="translate(-257.37 -362.986)"/></g><g class="i" transform="translate(161.192 335.067)"><path d="M284.073,395.356c-.055-.133.841-.6,2.335-1.594a23.959,23.959,0,0,0,5.533-5.068,23.3,23.3,0,0,0,2.733-4.36,22.994,22.994,0,0,0,1.815-5.589,22.223,22.223,0,0,0-.343-9.794,23.467,23.467,0,0,0-1.162-3.32,25.342,25.342,0,0,0-1.671-3.11,22.128,22.128,0,0,0-2.069-2.734,22.466,22.466,0,0,0-4.947-4.172,22.983,22.983,0,0,0-5.356-2.435,23.528,23.528,0,0,0-12.528-.3,13.278,13.278,0,0,1-2.733.642,6.717,6.717,0,0,1,2.545-1.295A21.027,21.027,0,0,1,275.972,351a23.052,23.052,0,0,1,11.089,3.165,21.029,21.029,0,0,1,2.8,1.959,21.5,21.5,0,0,1,2.59,2.446,23.018,23.018,0,0,1,2.213,2.944,25.573,25.573,0,0,1,1.815,3.32,25.127,25.127,0,0,1,1.24,3.6,23.485,23.485,0,0,1,.642,3.641,22.773,22.773,0,0,1,0,3.575,21.149,21.149,0,0,1-.454,3.386,22.809,22.809,0,0,1-5.179,10.425,20.961,20.961,0,0,1-6.12,4.858A6.906,6.906,0,0,1,284.073,395.356Z" transform="translate(-265.68 -350.991)"/></g><path class="j" d="M283.665,396.287l.332-.177.985-.487a10.881,10.881,0,0,0,1.56-.852,16.944,16.944,0,0,0,2.025-1.328,22.411,22.411,0,0,0,4.737-4.626,22.864,22.864,0,0,0,3.918-7.747,22.255,22.255,0,0,0-4.991-21.3,23.75,23.75,0,0,0-2.335-2.213,24.888,24.888,0,0,0-2.733-1.881,21.726,21.726,0,0,0-6.33-2.59,22.687,22.687,0,0,0-7.049-.6,25.133,25.133,0,0,0-7.1,1.616,24.866,24.866,0,0,0-6.242,3.763,22.665,22.665,0,0,0-4.67,5.323A21.636,21.636,0,0,0,253,369.428a24.236,24.236,0,0,0-.664,3.254,26.84,26.84,0,0,0-.133,3.254,22.277,22.277,0,0,0,11.067,18.747,23.307,23.307,0,0,0,14.84,2.955,20.5,20.5,0,0,0,2.379-.443,12.166,12.166,0,0,0,1.715-.476l1.051-.332.354-.1a1.194,1.194,0,0,1-.343.155l-1.029.387a10.883,10.883,0,0,1-1.7.531,17.638,17.638,0,0,1-2.39.5,22.288,22.288,0,0,1-6.7,0,22.941,22.941,0,0,1-8.378-2.866,22.631,22.631,0,0,1-7.747-7.359,22.886,22.886,0,0,1-3.652-11.731,24.158,24.158,0,0,1,.133-3.32,25.334,25.334,0,0,1,.664-3.32,22.133,22.133,0,0,1,2.822-6.408,23.8,23.8,0,0,1,18.459-10.989,23.085,23.085,0,0,1,7.215.631,22.287,22.287,0,0,1,6.474,2.656,26.281,26.281,0,0,1,2.8,1.948,24.8,24.8,0,0,1,2.39,2.3,22.9,22.9,0,0,1,.93,29.57,22.234,22.234,0,0,1-4.858,4.6,17.633,17.633,0,0,1-2.069,1.306,10.675,10.675,0,0,1-1.6.8l-1.007.443A1.43,1.43,0,0,1,283.665,396.287Z" transform="translate(-105.983 -15.837)"/><path class="h" d="M246.871,377.809a5.867,5.867,0,0,1-.21-.9,19.638,19.638,0,0,1-.21-2.512,26.239,26.239,0,0,1,4.836-15.67,19.26,19.26,0,0,1,1.582-1.959,3.322,3.322,0,0,1,.675-.631c.077.066-.775,1.107-1.926,2.811a29.636,29.636,0,0,0-4.759,15.493C246.816,376.492,246.971,377.8,246.871,377.809Z" transform="translate(-106.539 -15.375)"/><path class="h" d="M247.522,380.519c-.166,0-.4-.52-.542-1.239s-.122-1.317,0-1.339.4.52.531,1.228S247.677,380.485,247.522,380.519Z" transform="translate(-106.493 -13.05)"/><path class="l" d="M280.755,380.879c-13.457,6.12-26.394,14.265-41.046,16.334-20.341,2.877-40.294-5.533-58.9-14.907-27.49-13.767-52.954-15.217-60.5-9.783v79.393a31.8,31.8,0,0,0,31.75,31.806H312.749a31.806,31.806,0,0,0,31.806-31.806V367.09C324.015,368.163,298.384,372.856,280.755,380.879Z" transform="translate(-119.994 -14.207)"/><path class="j" d="M319.017,279.4c0,.155-40.548.288-90.548.288s-90.559-.133-90.559-.288,40.537-.288,90.559-.288S319.017,279.232,319.017,279.4Z" transform="translate(-118.117 -23.592)"/><path class="j" d="M342.681,367.09h-.6l-1.76.077c-1.538.055-3.807.188-6.729.421a159.36,159.36,0,0,0-58.886,16.6c-6.219,3.043-12.671,6.452-19.7,9.241a74.423,74.423,0,0,1-11,3.453c-.963.21-1.915.421-2.9.564l-1.45.243-1.483.166c-.985.077-1.97.243-2.977.266l-3,.111a72.01,72.01,0,0,1-11.83-1.051,100.318,100.318,0,0,1-11.2-2.767,186.325,186.325,0,0,1-20.274-7.9c-6.341-2.822-12.284-5.644-17.972-8a146.6,146.6,0,0,0-16.1-5.777,70.829,70.829,0,0,0-24.457-3.043,37.3,37.3,0,0,0-3.862.4c-.553.078-1.107.122-1.538.21l-1.273.266-1.715.343c-.387.077-.6.1-.6.1s.2-.066.587-.155l1.7-.4,1.262-.3c.465-.089.985-.144,1.549-.232a33.441,33.441,0,0,1,3.873-.454,69.6,69.6,0,0,1,24.579,2.877,140.565,140.565,0,0,1,16.168,5.71c5.71,2.335,11.675,5.157,18.006,7.957a188.136,188.136,0,0,0,20.23,7.846,99.134,99.134,0,0,0,11.133,2.745,72.02,72.02,0,0,0,11.731,1.04l2.966-.111c1,0,1.97-.177,2.944-.266l1.461-.155,1.45-.243c.963-.144,1.915-.343,2.855-.564a72.464,72.464,0,0,0,10.923-3.42c6.994-2.756,13.435-6.153,19.665-9.185a158.582,158.582,0,0,1,34.628-12.539,153.039,153.039,0,0,1,24.535-3.752c2.933-.2,5.2-.3,6.751-.31h1.76a5,5,0,0,1,.542-.011Z" transform="translate(-119.88 -14.207)"/><path class="h" d="M169.12,408.248c3.929.907,7.647,2.545,11.509,3.674a20.7,20.7,0,0,0,1.583-2.833,19.865,19.865,0,1,0-35.159,2.081,32.757,32.757,0,0,1,22.067-2.922Z" transform="translate(-117.443 -12.714)"/><path class="h" d="M145.2,402.25a6.12,6.12,0,0,1-.343-2.213,16.6,16.6,0,0,1,.741-5.478,16.821,16.821,0,0,1,2.468-4.947,6.529,6.529,0,0,1,1.56-1.682,22.056,22.056,0,0,0-4.427,14.387Z" transform="translate(-117.376 -11.984)"/><path class="h" d="M145.626,404.056c-.155,0-.354-.332-.443-.808s0-.874.111-.908.354.332.454.8S145.792,404.022,145.626,404.056Z" transform="translate(-117.345 -10.447)"/><path class="j" d="M150.96,408.889l.321-.1a15.249,15.249,0,0,1-2.081-4.814,14.929,14.929,0,0,1,0-6.928,14.73,14.73,0,0,1,3.873-6.917,13.7,13.7,0,0,1,3.453-2.59,14.2,14.2,0,0,1,4.227-1.527,15.261,15.261,0,0,1,16.235,7.3,14.973,14.973,0,0,1,1.97,8.488,14.763,14.763,0,0,1-2.612,7.47c-.177.277-.4.509-.6.764l.476.155c.166-.21.354-.409.52-.642a15.25,15.25,0,0,0,2.745-7.747,14.532,14.532,0,0,0-.343-4.427,14.73,14.73,0,0,0-1.715-4.349,15.8,15.8,0,0,0-16.832-7.57,14.553,14.553,0,0,0-4.427,1.6,14.175,14.175,0,0,0-3.563,2.689,15.139,15.139,0,0,0-3.884,14.32,15.3,15.3,0,0,0,2.235,4.814Z" transform="translate(-117.012 -12.281)"/><g class="i" transform="translate(53.612 374.673)"><path d="M170.042,387.71a16.279,16.279,0,0,1,3.729,3.32,15.494,15.494,0,0,1,1.87,2.855,14.7,14.7,0,0,1,1.295,3.674,12.873,12.873,0,0,1,.288,2.092,13.19,13.19,0,0,1,0,2.213,14.568,14.568,0,0,1-.354,2.213,14.907,14.907,0,0,1-1.782,4.316,14.045,14.045,0,0,1-1.107,1.6l1.107.4a14,14,0,0,0,1-1.405,17.16,17.16,0,0,0,1.107-2.213,15.909,15.909,0,0,0,.764-2.4,15.492,15.492,0,0,0,.376-2.424,15.328,15.328,0,0,0,0-2.368,13.281,13.281,0,0,0-.354-2.213,15.239,15.239,0,0,0-1.483-3.9,15.792,15.792,0,0,0-2.1-2.944,14.066,14.066,0,0,0-4.128-3.121,4.782,4.782,0,0,0-1.793-.631C168.437,386.78,169.057,387.079,170.042,387.71Z" transform="translate(-168.469 -386.78)"/></g><g class="i" transform="translate(35.32 379.244)"><path d="M156.754,404.788c3.043,1.317,4.991-.974,6.64-3.132l3.685,1.594a9.728,9.728,0,0,1-2.568,2.822l.575.587a26.76,26.76,0,0,1,2.944.487,12.681,12.681,0,0,0,1.9-2.656l2.357,1.018.941-2.213-2.413-1c1.107-3.586-.166-6.109-2.457-7.1-3.1-1.339-5.057,1.007-6.64,3.154l-3.619-1.56a9.683,9.683,0,0,1,3.32-3.541L159.3,390.91a11.243,11.243,0,0,0-4.061,4.648l-2.357-1.029-.941,2.213,2.424,1.051C153.257,401.324,154.5,403.814,156.754,404.788Zm10.237-6.031c.719.31,1.107,1.04.907,2.3l-3.065-1.339C165.541,398.9,166.238,398.435,166.991,398.756Zm-9.816.232,2.988,1.284c-.719.8-1.405,1.239-2.213.919S156.953,400.173,157.175,398.989Z" transform="translate(-151.94 -390.91)"/></g><path class="j" d="M193.022,411.954a2.8,2.8,0,0,1-.531,0h-1.538a36.1,36.1,0,0,1-5.633-.587,65.082,65.082,0,0,1-8.123-2.147c-3.01-.952-6.264-2.213-9.772-3.032a22.044,22.044,0,0,0-10.037.089,48.027,48.027,0,0,0-7.946,2.49c-2.213.874-3.962,1.682-5.168,2.213a16.393,16.393,0,0,1-1.9.841,2.214,2.214,0,0,1,.454-.3c.31-.177.753-.432,1.35-.741,1.184-.62,2.911-1.483,5.113-2.424a46.657,46.657,0,0,1,7.99-2.623,22.133,22.133,0,0,1,10.281-.133c3.563.874,6.806,2.125,9.805,3.1a70.2,70.2,0,0,0,8.034,2.213,41.975,41.975,0,0,0,5.533.775,14.867,14.867,0,0,1,2.092.266Z" transform="translate(-117.641 -10.156)"/><path class="j" d="M214.056,88.1l-.786.476c-.509.31-1.273.775-2.213,1.439-1.948,1.306-4.737,3.32-8.189,6.175-1.715,1.417-3.663,2.988-5.644,4.8a16.39,16.39,0,0,0-3.6,7.857c-1.251,6.208,0,13.535,2.534,21.027a113.21,113.21,0,0,0,4.615,11.587c1.826,3.94,3.984,7.935,5.887,12.229,1,2.125,1.881,4.349,2.833,6.574s1.8,4.548,2.623,6.917c1.693,4.714,3.22,9.639,4.526,14.752a165.028,165.028,0,0,1,5.091,32.7c.332,5.744.266,11.6.144,17.519s-.354,11.941-.653,18.028c-.587,12.173-1.361,24.026-1.8,35.491s-.664,22.543-.675,33.089c0,21.093.841,40.073,1.948,55.986s2.435,28.773,3.442,37.627c.5,4.427.93,7.879,1.217,10.2.133,1.162.243,2.036.31,2.656s.089.907.089.907a4.33,4.33,0,0,0-.144-.9c-.144-.6-.21-1.494-.365-2.645-.321-2.335-.8-5.766-1.328-10.192-1.107-8.853-2.468-21.7-3.63-37.627s-2.014-34.915-2.069-56.02c0-10.558.188-21.635.642-33.112s1.206-23.34,1.793-35.5c.3-6.076.531-12.085.664-18.006s.188-11.753-.144-17.474a164.978,164.978,0,0,0-5-32.614c-1.295-5.1-2.822-9.96-4.493-14.708-.808-2.368-1.737-4.648-2.6-6.906s-1.826-4.427-2.822-6.563c-1.881-4.283-4.017-8.278-5.843-12.24a111.372,111.372,0,0,1-4.7-11.6c-2.523-7.548-3.763-14.94-2.468-21.237a16.711,16.711,0,0,1,3.718-7.979c2.025-1.837,3.962-3.32,5.7-4.792,3.486-2.789,6.3-4.814,8.267-6.1a29.148,29.148,0,0,1,3.132-1.837Z" transform="translate(-112.27 -43.967)"/><path class="j" d="M127.918,326.93c.155,0,.288,25.708.288,57.4s-.133,57.4-.288,57.4-.288-25.7-.288-57.4S127.752,326.93,127.918,326.93Z" transform="translate(-119.213 -18.491)"/><path class="h" d="M313.638,440.985c-.166,0-.288-11.255-.288-25.132s.122-25.132.288-25.132.288,11.255.288,25.132S313.793,440.985,313.638,440.985Z" transform="translate(-99.403 -11.686)"/><path class="h" d="M313.638,373.82a11.653,11.653,0,0,1,0,5.146A11.652,11.652,0,0,1,313.638,373.82Z" transform="translate(-99.403 -13.489)"/><path class="m" d="M248.823,302.04c12.527-6.053,26.56-8.045,40.371-9.86a51.006,51.006,0,0,1-67.584,41.412C224.332,319.935,236.284,308.083,248.823,302.04Z" transform="translate(-109.189 -22.198)"/><path class="j" d="M216.44,335.844a5.082,5.082,0,0,1,.454-.409,13.493,13.493,0,0,1,1.394-1.029c1.228-.874,3.088-2,5.4-3.386,4.626-2.745,11.067-6.352,18.293-10.3l18.382-10.159,5.533-3.121,1.516-.841a2.345,2.345,0,0,1,.542-.255,2.214,2.214,0,0,1-.487.354l-1.461.93c-1.273.808-3.143,1.926-5.456,3.32-4.637,2.722-11.122,6.352-18.3,10.3s-13.7,7.5-18.371,10.159c-2.335,1.328-4.216,2.413-5.478,3.22S216.473,335.844,216.44,335.844Z" transform="translate(-109.74 -20.687)"/><path class="m" d="M248.3,173.51c11.62-5.6,24.635-7.448,37.428-9.13a47.288,47.288,0,0,1-62.649,38.379C225.6,190.11,236.681,179.121,248.3,173.51Z" transform="translate(-109.032 -35.83)"/><path class="j" d="M218.92,204.444a1.992,1.992,0,0,1,.409-.376,14.249,14.249,0,0,1,1.262-.941c1.107-.8,2.822-1.837,4.936-3.11,4.216-2.5,10.148-5.8,16.711-9.418l16.788-9.23,5.069-2.844,1.383-.764a2.5,2.5,0,0,1,.509-.232,2.049,2.049,0,0,1-.454.332l-1.328.863c-1.107.73-2.866,1.749-4.98,3-4.227,2.49-10.148,5.81-16.711,9.418S230,197.992,225.726,200.4c-2.125,1.217-3.851,2.213-5,2.944A10.546,10.546,0,0,1,218.92,204.444Z" transform="translate(-109.476 -34.427)"/><path class="m" d="M198.987,226.145c-9.307-4.77-19.82-6.529-30.157-8.145a38.335,38.335,0,0,0,49.988,32.348C217.059,240.045,208.294,230.915,198.987,226.145Z" transform="translate(-114.819 -30.11)"/><path class="j" d="M220.976,251.764a17.2,17.2,0,0,1-1.45-.941c-.919-.609-2.3-1.439-4.006-2.457l-13.435-7.824c-5.246-3.065-9.96-5.876-13.357-7.979-1.682-1.107-3.043-1.926-3.962-2.545A9.272,9.272,0,0,1,183.36,229a10.313,10.313,0,0,1,1.516.819l4.061,2.39,13.446,7.857c5.246,3.054,9.96,5.843,13.346,7.968,1.682,1.107,3.032,1.948,3.929,2.623a10.766,10.766,0,0,1,1.007.808C220.887,251.642,221,251.753,220.976,251.764Z" transform="translate(-113.269 -28.937)"/><path class="m" d="M189.767,140.843c-12.384-6.341-26.372-8.687-40.117-10.823a51,51,0,0,0,66.555,43.027C213.815,159.336,202.15,147.2,189.767,140.843Z" transform="translate(-116.865 -39.495)"/><path class="j" d="M219.035,174.915s-.664-.487-1.915-1.284-3.054-1.937-5.312-3.32c-4.548-2.722-10.879-6.374-17.862-10.436s-13.28-7.747-17.784-10.591c-2.213-1.394-4.061-2.545-5.3-3.32l-1.417-.93a2.213,2.213,0,0,1-.465-.365,2.214,2.214,0,0,1,.531.266l1.472.863,5.389,3.2,17.862,10.425c6.983,4.061,13.28,7.747,17.784,10.58,2.213,1.417,4.039,2.579,5.235,3.464a15.734,15.734,0,0,1,1.35,1.107A2.674,2.674,0,0,1,219.035,174.915Z" transform="translate(-114.803 -37.932)"/><path class="m" d="M192.771,328.69c-12.528-6.042-26.56-8.045-40.371-9.86a51.006,51.006,0,0,0,67.584,41.412C217.251,346.6,205.31,334.733,192.771,328.69Z" transform="translate(-116.571 -19.355)"/><path class="j" d="M223.836,362.618c0,.055-.686-.465-1.981-1.251s-3.165-1.892-5.533-3.232c-4.692-2.667-11.244-6.231-18.448-10.2s-13.723-7.614-18.382-10.347c-2.324-1.372-4.205-2.49-5.533-3.32l-1.472-.93c-.332-.221-.5-.343-.487-.365a3.1,3.1,0,0,1,.553.266l1.66.874,5.533,3.132,18.437,10.148c7.2,3.973,13.723,7.592,18.371,10.347,2.324,1.383,4.183,2.523,5.423,3.4a17.313,17.313,0,0,1,1.405,1.04,3.179,3.179,0,0,1,.454.443Z" transform="translate(-114.481 -17.846)"/><path class="j" d="M320.9,252.948c0,.155-40.537.288-90.537.288s-90.559-.133-90.559-.288,40.537-.288,90.559-.288S320.9,252.782,320.9,252.948Z" transform="translate(-117.915 -26.413)"/><path class="j" d="M320.555,259.649c0,.155-40.537.288-90.548.288s-90.548-.133-90.548-.288,40.537-.3,90.548-.3S320.555,259.483,320.555,259.649Z" transform="translate(-117.952 -25.7)"/><path class="j" d="M320.555,263.248c0,.166-40.537.288-90.548.288s-90.548-.122-90.548-.288,40.537-.288,90.548-.288S320.555,263.093,320.555,263.248Z" transform="translate(-117.952 -25.314)"/><path class="j" d="M320.385,269.948c0,.155-40.548.288-90.548.288s-90.548-.133-90.548-.288,40.537-.288,90.548-.288S320.385,269.793,320.385,269.948Z" transform="translate(-117.97 -24.6)"/><path class="m" d="M216.045,293.125a4.936,4.936,0,0,0-1.228-2.213,32.2,32.2,0,0,0-25.774-9.318,1.472,1.472,0,0,0-1.107.432c-.387.52,0,1.251.487,1.737a30.267,30.267,0,0,0,27.622,9.362Z" transform="translate(-112.798 -23.342)"/><path class="j" d="M218.084,294.683c0,.066-1.107-.686-2.966-1.793a51.081,51.081,0,0,0-7.415-3.7,55.2,55.2,0,0,0-7.924-2.435,27.986,27.986,0,0,1-3.32-.786,2.847,2.847,0,0,1,.93,0,17.123,17.123,0,0,1,2.512.354,43.031,43.031,0,0,1,8.057,2.3,40.051,40.051,0,0,1,7.426,3.884,25.388,25.388,0,0,1,2.058,1.494C217.907,294.4,218.151,294.65,218.084,294.683Z" transform="translate(-111.871 -22.864)"/><path class="l" d="M213.43,160.615a5.035,5.035,0,0,1,.764-2.413,32.2,32.2,0,0,1,23.373-14.309,1.461,1.461,0,0,1,1.107.21c.487.432.21,1.228-.122,1.793A30.29,30.29,0,0,1,213.43,160.615Z" transform="translate(-110.061 -38.019)"/><path class="j" d="M210.71,163.167a3.74,3.74,0,0,1,.564-.775c.387-.487,1-1.107,1.771-1.937a44.1,44.1,0,0,1,6.64-5.533,43.6,43.6,0,0,1,7.6-4.084c1.018-.421,1.859-.73,2.446-.907a2.965,2.965,0,0,1,.941-.221c0,.089-1.239.576-3.22,1.505a55.329,55.329,0,0,0-7.448,4.183,56.227,56.227,0,0,0-6.64,5.312,32.72,32.72,0,0,1-2.656,2.457Z" transform="translate(-110.351 -37.395)"/><path class="h" d="M258.717,393.74l-23.827,6.441.044.155,12.516,61.033,50.885-13.745-9.916-36.73Z" transform="translate(-107.772 -11.364)"/><g class="i" transform="translate(127.118 382.376)"><path d="M258.717,393.74l-23.827,6.441.044.155,12.516,61.033,50.885-13.745-9.916-36.73Z" transform="translate(-234.89 -393.74)"/></g><path class="h" d="M236.606,399.56,218.8,428.278l10.237,37.9,47.653-12.871-10.015-37.1Z" transform="translate(-109.488 -10.743)"/><path class="j" d="M242.866,458.034a7.964,7.964,0,0,1-.476-1.383c-.288-1-.664-2.291-1.107-3.873-.941-3.409-2.213-8.034-3.7-13.28l-.077-.277.266-.066,5.9-1.6,5.91-1.583.277-.077.066.266,3.508,13.38c.4,1.6.73,2.922.974,3.918a7.754,7.754,0,0,1,.243,1.372,7.967,7.967,0,0,1-.476-1.383c-.288-1-.664-2.291-1.107-3.873-.952-3.409-2.213-8.034-3.707-13.28l.343.188-5.9,1.6-5.9,1.594.144-.343L241.56,452.7c.4,1.6.73,2.922.974,3.918a7.916,7.916,0,0,1,.332,1.417Z" transform="translate(-107.493 -6.868)"/><g class="i" transform="translate(141.814 413.118)"><rect class="h" width="10.558" height="10.558" transform="translate(0 2.733) rotate(-15.005)"/></g><g class="i" transform="translate(116.09 417.471)"><rect class="h" width="10.513" height="10.513" transform="translate(0 2.741) rotate(-15.11)"/></g><rect class="h" width="5.257" height="15.604" transform="translate(110.031 397.802) rotate(-15.11)"/><path class="j" d="M236.606,400.2a1.9,1.9,0,0,1,.421-.144l1.228-.365,4.737-1.339,17.386-4.792h.166l29.769,17.087.6.343-.675.177-16.191,4.15-7.3,1.859h-.111l-.1-.055-30.035-16.7.321-.089c-5.4,8.621-9.871,15.781-13.026,20.805l-3.652,5.777-.985,1.516a2.754,2.754,0,0,1-.354.5,4.149,4.149,0,0,1,.3-.542l.919-1.538c.83-1.383,2.025-3.32,3.541-5.854l12.848-20.916.122-.188.2.111,30.079,16.6h-.21l7.3-1.859,16.2-4.139-.066.509-29.7-17.142h.155l-17.441,4.6-4.759,1.228-1.251.31Z" transform="translate(-109.488 -11.383)"/><g class="i" transform="translate(130.338 429.321)"><path d="M254.644,454.818l-5.035-18.658L237.8,439.347l5.035,18.658" transform="translate(-237.8 -436.16)"/></g><path class="l" d="M314.9,449.76a34.583,34.583,0,0,0-35.413-7.979c-8.422,3.032-16.135,9.484-25.055,8.732-4.9-.421-9.318-3.01-14.01-4.427a31.252,31.252,0,0,0-29.88,6.817l-4.172,13.413s113.81,4.261,113.81,0S314.9,449.76,314.9,449.76Z" transform="translate(-110.814 -6.44)"/><path class="j" d="M308.526,445.093a6.869,6.869,0,0,1-.863-.432c-.553-.3-1.372-.741-2.457-1.228a37.451,37.451,0,0,0-9.628-2.922,32.094,32.094,0,0,0-14.763.963c-5.412,1.571-10.934,4.493-16.91,7.138-2.966,1.328-6.042,2.567-9.219,2.612s-6.031-1.273-8.588-2.4a37.826,37.826,0,0,0-14.387-3.552,38.448,38.448,0,0,0-10.015.874c-1.107.277-2.058.509-2.667.7a4.615,4.615,0,0,1-.93.232,8.473,8.473,0,0,1,.9-.343c.6-.221,1.483-.5,2.645-.8a36.587,36.587,0,0,1,10.093-1.107,37.736,37.736,0,0,1,14.608,3.475c2.579,1.107,5.334,2.39,8.378,2.324s6.031-1.251,8.986-2.579c5.954-2.623,11.5-5.533,17-7.116a31.917,31.917,0,0,1,14.973-.852,36,36,0,0,1,9.65,3.121,24.609,24.609,0,0,1,2.424,1.328,6.129,6.129,0,0,1,.775.564Z" transform="translate(-109.563 -6.476)"/><rect class="h" width="41.744" height="17.33" transform="translate(41.622 421.885) rotate(9.47)"/><rect class="h" width="63.822" height="3.431" transform="translate(32.353 419.011) rotate(9.47)"/><g class="i" transform="translate(76.052 426.381)"><rect width="18.946" height="3.409" transform="translate(0.561 0) rotate(9.47)"/></g><g class="i" transform="translate(63.732 428.486)"><rect width="19.5" height="15.271" transform="matrix(0.987, 0.16, -0.16, 0.987, 2.436, 0)"/></g><path class="j" d="M211.766,440.391c0,.155-14.088-2.058-31.407-4.947s-31.341-5.356-31.319-5.533,14.088,2.058,31.407,4.947S211.8,440.225,211.766,440.391Z" transform="translate(-116.93 -7.507)"/><path class="l" d="M149.922,443.555c6.175-.919,12.671-1.815,18.526.376,3.563,1.339,6.751,3.8,10.513,4.427,4.427.742,9.008-1.217,13.546-.874a13.556,13.556,0,0,1,9.96,5.755,5.389,5.389,0,0,1-3.807,2.944,15.9,15.9,0,0,1-4.969.133c-10.06-.775-20.13-1.549-30.068-3.232a27.322,27.322,0,0,1-8.632-2.567,10.225,10.225,0,0,1-5.4-6.872" transform="translate(-116.871 -6.156)"/><path class="j" d="M146.75,443.786a10.636,10.636,0,0,0,.885-1.107c.531-.741,1.251-1.9,2.1-3.32,1.693-2.844,3.873-7.038,7.647-10.613a13.048,13.048,0,0,1,6.419-3.32,8.1,8.1,0,0,1,5.821,1,6.563,6.563,0,0,1,2.678,2.966,4.161,4.161,0,0,1,.332,1.04c0,.244.055.376,0,.376s-.144-.509-.564-1.328a6.839,6.839,0,0,0-2.678-2.711,7.89,7.89,0,0,0-5.533-.819,12.882,12.882,0,0,0-6.131,3.32,33.463,33.463,0,0,0-4.559,5.467c-1.239,1.793-2.213,3.541-3.132,4.947a33.326,33.326,0,0,1-2.213,3.265,3.186,3.186,0,0,1-1.073.841Z" transform="translate(-117.174 -8.002)"/><path class="j" d="M210.047,452.922a8.067,8.067,0,0,1-2.745-.055,26.638,26.638,0,0,1-7.005-2.6,29.733,29.733,0,0,0-4.737-1.892,13.15,13.15,0,0,0-2.767-.476,14.491,14.491,0,0,0-2.977.221c-2.025.321-4.117,1-6.385,1.35a12.437,12.437,0,0,1-3.519.1,9.75,9.75,0,0,1-3.442-1.162c-2.158-1.162-3.951-2.745-5.921-3.752a17.2,17.2,0,0,0-6.175-1.638c-4.117-.354-7.868.155-11.067,0a27.016,27.016,0,0,1-7.4-1.107,18.149,18.149,0,0,1-1.9-.708,3.315,3.315,0,0,1-.631-.332c0-.055.907.365,2.6.83a28.983,28.983,0,0,0,7.348.863c3.121.077,6.861-.487,11.067-.144a17.187,17.187,0,0,1,6.385,1.66c2.069,1.107,3.851,2.623,5.932,3.741a9.541,9.541,0,0,0,3.254,1.107,12.17,12.17,0,0,0,3.32-.1c2.213-.332,4.316-1,6.4-1.317a16.144,16.144,0,0,1,3.077-.2,13.94,13.94,0,0,1,2.877.52,29.182,29.182,0,0,1,4.88,2.036,28.71,28.71,0,0,0,6.872,2.745A21.218,21.218,0,0,0,210.047,452.922Z" transform="translate(-117.535 -6.337)"/><path class="j" d="M226.838,106.4a10.611,10.611,0,0,1-1.494,1.107c-.5.343-1.107.753-1.771,1.273s-1.483,1.107-2.28,1.782-1.737,1.417-2.645,2.291-1.87,1.793-2.855,2.811a55.191,55.191,0,0,0-5.677,7.2,53.871,53.871,0,0,0-4.283,8.1c-.52,1.317-1.018,2.567-1.372,3.774s-.7,2.313-.963,3.32-.443,1.992-.62,2.822-.288,1.549-.376,2.147a11.241,11.241,0,0,1-.332,1.837,12.34,12.34,0,0,1,.111-1.87,13.928,13.928,0,0,1,.277-2.213c.155-.885.266-1.815.542-2.855s.5-2.213.9-3.409.841-2.49,1.35-3.829a50.585,50.585,0,0,1,4.283-8.223,53.052,53.052,0,0,1,5.777-7.249c1.007-1.018,1.959-1.981,2.922-2.8s1.859-1.594,2.711-2.213,1.649-1.217,2.346-1.715,1.317-.9,1.826-1.206a12.176,12.176,0,0,1,1.627-.885Z" transform="translate(-111.262 -42.015)"/><path class="f" d="M188.881,203.854a14.143,14.143,0,1,1,7.747-18.382A14.143,14.143,0,0,1,188.881,203.854Z" transform="translate(-114.761 -34.524)"/><g class="n" transform="translate(60.961 151.025)"><path class="h" d="M177.489,193.411l-1.726.73-.653-1.549,1.682-.708a7.968,7.968,0,0,1-.376-4.36l2.213.055a6.85,6.85,0,0,0,.166,3.453l2.579-1.107c-.3-1.881-.531-4.039,1.671-4.969,1.638-.686,3.541-.089,4.847,2.213l1.715-.719L190.26,188l-1.693.708a7.448,7.448,0,0,1,.376,3.53H186.73a6.75,6.75,0,0,0-.188-2.7l-2.623,1.107c.321,1.881.531,4.006-1.638,4.914C180.688,196.3,178.8,195.713,177.489,193.411Zm6.175-4.427,2.213-.919c-.52-.741-1.107-.874-1.616-.664s-.664.83-.6,1.594Zm-2.6,4.227c.542-.232.642-.8.6-1.56l-2.136.9c.5.708,1,.874,1.538.675Z" transform="translate(-175.11 -184.688)"/></g><g class="i" transform="translate(65.299 144.771)"><path d="M187.684,199.934a6.91,6.91,0,0,1,1.107-.753,11.532,11.532,0,0,0,2.6-2.39,10.967,10.967,0,0,0,1.273-2.047,10.513,10.513,0,0,0,.863-2.634,10.7,10.7,0,0,0-.166-4.637,11.854,11.854,0,0,0-.542-1.56,12.4,12.4,0,0,0-.786-1.472,11.484,11.484,0,0,0-.974-1.284,10.277,10.277,0,0,0-1.107-1.107,9.121,9.121,0,0,0-1.217-.874,10.58,10.58,0,0,0-2.512-1.107,11.067,11.067,0,0,0-2.39-.443,11.52,11.52,0,0,0-3.508.3,7.191,7.191,0,0,1-1.295.31,3.132,3.132,0,0,1,1.206-.609,9.959,9.959,0,0,1,3.63-.587,11.066,11.066,0,0,1,5.268,1.527,10.091,10.091,0,0,1,1.317.919,10.8,10.8,0,0,1,1.217,1.107,12.039,12.039,0,0,1,1.107,1.383,11.422,11.422,0,0,1,.852,1.583,11.781,11.781,0,0,1,.587,1.693,10.315,10.315,0,0,1,.277,1.7,12.224,12.224,0,0,1,0,1.682,10.833,10.833,0,0,1-.221,1.594,11.223,11.223,0,0,1-.985,2.789,10.736,10.736,0,0,1-1.45,2.114,10.07,10.07,0,0,1-2.877,2.291,3.186,3.186,0,0,1-1.273.509Z" transform="translate(-179.03 -179.037)"/></g><path class="j" d="M187.466,200.37a26.352,26.352,0,0,0,2.269-1.394,10.945,10.945,0,0,0,4.006-5.821,10.381,10.381,0,0,0-2.346-9.86,10.027,10.027,0,0,0-2.357-1.926,10.414,10.414,0,0,0-2.944-1.2,10.757,10.757,0,0,0-11.631,4.692,10.138,10.138,0,0,0-1.295,2.9,9.728,9.728,0,0,0-.376,3.01,10.436,10.436,0,0,0,5.146,8.743,11.067,11.067,0,0,0,6.928,1.428,26.376,26.376,0,0,0,2.6-.575,8.766,8.766,0,0,1-2.568.8,10.934,10.934,0,0,1-7.16-1.295,10.757,10.757,0,0,1-3.718-3.486,10.879,10.879,0,0,1-1.76-5.589,10.4,10.4,0,0,1,.376-3.176,10.591,10.591,0,0,1,1.339-3.066,11.41,11.41,0,0,1,5.334-4.427,11.288,11.288,0,0,1,6.917-.487,10.269,10.269,0,0,1,3.088,1.273,10.028,10.028,0,0,1,2.468,2.025,10.779,10.779,0,0,1,2.346,10.336,10.923,10.923,0,0,1-4.261,5.9,8.467,8.467,0,0,1-2.4,1.2Z" transform="translate(-114.453 -34.237)"/><path class="h" d="M170.176,191.673a10.646,10.646,0,0,1,3.143-10.2,25.883,25.883,0,0,0-2.39,4.847,24.977,24.977,0,0,0-.753,5.356Z" transform="translate(-114.704 -34.007)"/><path class="h" d="M170.492,192.948c-.166,0-.343-.221-.409-.553s0-.631.166-.664.332.221.4.553S170.647,192.914,170.492,192.948Z" transform="translate(-114.688 -32.913)"/><path class="m" d="M173.48,201.649c8.853,3.552,19.92,3.077,27.667-2.39h0c-4.061-3.265-9.5-6.186-14.663-5.478A19.433,19.433,0,0,0,173.48,201.649Z" transform="translate(-114.323 -32.705)"/><path class="m" d="M187.109,176.5a29.128,29.128,0,0,1,12.86,24.092l-.221.819A19.19,19.19,0,0,1,187.109,176.5Z" transform="translate(-112.99 -34.537)"/><path class="j" d="M221.718,219a8.067,8.067,0,0,1-.83-1.383,39.765,39.765,0,0,0-2.4-3.619,36.871,36.871,0,0,0-4.327-4.759c-1.771-1.66-3.862-3.32-6.065-5.08a56.23,56.23,0,0,0-12.041-7.747c-1.671-.753-3.066-1.284-4.039-1.616a11.069,11.069,0,0,1-1.505-.553,7.746,7.746,0,0,1,1.571.332,33.2,33.2,0,0,1,4.128,1.472,50.8,50.8,0,0,1,12.24,7.658c2.213,1.76,4.3,3.453,6.076,5.146a35.259,35.259,0,0,1,4.294,4.9,31.085,31.085,0,0,1,2.213,3.763,8.522,8.522,0,0,1,.686,1.483Z" transform="translate(-112.506 -32.645)"/><path class="f" d="M238.652,248.756a7.559,7.559,0,1,1,6.983,8.079A7.559,7.559,0,0,1,238.652,248.756Z" transform="translate(-107.373 -27.578)"/><g transform="translate(136.244 217.261)"><path class="h" d="M245.309,245.547l.066-1.007.885.055-.055.974a4.272,4.272,0,0,1,2.213.852l-.564,1.107a3.486,3.486,0,0,0-1.693-.741l-.089,1.494c.974.3,2.069.7,1.992,1.97,0,.952-.8,1.726-2.213,1.8l-.066.985h-.9l.066-.974a4.051,4.051,0,0,1-1.782-.664l.509-1.107a3.629,3.629,0,0,0,1.339.553l.089-1.516c-.974-.3-2.047-.7-1.97-1.959C243.174,246.388,243.9,245.625,245.309,245.547Zm.664,4.006-.077,1.262c.476-.077.686-.321.7-.62s-.232-.5-.62-.642Zm-1.417-2.213c0,.31.232.5.609.653l.077-1.239c-.454.044-.664.266-.686.509Z" transform="translate(-243.136 -244.54)"/></g><g class="i" transform="translate(133.014 221.964)"><path d="M240.276,248.79a3.2,3.2,0,0,0,.111.7,6.02,6.02,0,0,0,.531,1.815,5.655,5.655,0,0,0,.675,1.107,5.876,5.876,0,0,0,1.107,1.029,4.667,4.667,0,0,0,.675.432,5.856,5.856,0,0,0,.753.354,6.526,6.526,0,0,0,.83.232,7.724,7.724,0,0,0,.885.111,5.86,5.86,0,0,0,.885,0,5.283,5.283,0,0,0,.852-.166,5.991,5.991,0,0,0,.786-.277,5.667,5.667,0,0,0,1.848-1.317,5.757,5.757,0,0,0,.775-1.04,5.867,5.867,0,0,0,.686-1.76,4.281,4.281,0,0,1,.155-.686,2.01,2.01,0,0,1,0,.719,5.29,5.29,0,0,1-.575,1.881,6.641,6.641,0,0,1-.775,1.107,6.121,6.121,0,0,1-1.2,1.04,8.156,8.156,0,0,1-.753.409,5.458,5.458,0,0,1-.841.31,5.2,5.2,0,0,1-.919.188,6.878,6.878,0,0,1-.963,0,6.765,6.765,0,0,1-.952-.111,5.851,5.851,0,0,1-.885-.266,4.271,4.271,0,0,1-.819-.387,4.429,4.429,0,0,1-.708-.476,5.909,5.909,0,0,1-1.107-1.107,6.255,6.255,0,0,1-.675-1.2,5.412,5.412,0,0,1-.421-1.926,1.661,1.661,0,0,1,.033-.719Z" transform="translate(-240.218 -248.79)"/></g><path class="j" d="M240.264,248.832a11.875,11.875,0,0,0,.122,1.417,5.843,5.843,0,0,0,1.848,3.32,5.6,5.6,0,0,0,5.312,1.206,5.777,5.777,0,0,0,.8-10.757,5.589,5.589,0,0,0-5.434.421,5.788,5.788,0,0,0-2.313,3,11.754,11.754,0,0,0-.332,1.394,4.824,4.824,0,0,1,.243-1.417,5.821,5.821,0,0,1,2.313-3.11,5.722,5.722,0,0,1,5.611-.476,5.976,5.976,0,0,1-.83,11.155,5.81,5.81,0,0,1-7.3-4.725A4.7,4.7,0,0,1,240.264,248.832Z" transform="translate(-107.203 -27.411)"/><path class="h" d="M247.68,242.48a2.446,2.446,0,0,1,.83.255,6.418,6.418,0,0,1,3.021,2.844,2.534,2.534,0,0,1,.31.819,10.736,10.736,0,0,0-1.737-2.324A10.869,10.869,0,0,0,247.68,242.48Z" transform="translate(-106.408 -27.499)"/><path class="h" d="M246.59,242.125c0-.066.166-.077.343,0s.31.144.288.2-.166.077-.343,0S246.568,242.181,246.59,242.125Z" transform="translate(-106.524 -27.543)"/><path class="m" d="M244.477,240.09A17.972,17.972,0,0,0,236,254.654l.122.509A11.864,11.864,0,0,0,244.5,240.09Z" transform="translate(-107.654 -27.754)"/><path class="m" d="M253.069,254.992a18,18,0,0,1-16.844-.885l-.365-.387a11.863,11.863,0,0,1,17.209,1.273Z" transform="translate(-107.669 -26.632)"/><path class="j" d="M241.591,251.44a13.028,13.028,0,0,1-1.549,1.107c-.52.354-1.107.786-1.826,1.339s-1.505,1.107-2.335,1.859-1.76,1.494-2.689,2.413-1.892,1.9-2.9,2.955a55.688,55.688,0,0,0-10.17,15.947c-.52,1.361-1.107,2.645-1.439,3.884-.2.62-.409,1.217-.575,1.793l-.443,1.682c-.31,1.107-.465,2.047-.653,2.911s-.31,1.6-.4,2.213a11.07,11.07,0,0,1-.343,1.9,14.55,14.55,0,0,1,.122-1.926,21.911,21.911,0,0,1,.3-2.213c.155-.874.288-1.881.575-2.955.133-.542.277-1.107.421-1.7s.354-1.184.542-1.815c.354-1.262.885-2.556,1.405-3.94a57.548,57.548,0,0,1,4.427-8.521,58.148,58.148,0,0,1,5.865-7.581,37.239,37.239,0,0,1,2.966-2.955c1-.863,1.881-1.682,2.756-2.379s1.682-1.284,2.4-1.8a20.679,20.679,0,0,1,1.892-1.262,10.936,10.936,0,0,1,1.649-.952Z" transform="translate(-109.758 -26.543)"/><path class="f" d="M205.532,107.537A30.024,30.024,0,1,1,228.219,71.7a30.024,30.024,0,0,1-22.687,35.834Z" transform="translate(-114.813 -48.221)"/><g transform="translate(66.705 19.583)"><path class="h" d="M185,81.845l-3.873.919-.83-3.475,3.774-.9a16.8,16.8,0,0,1,.719-9.274l4.67.9a14.387,14.387,0,0,0-.852,7.293l5.744-1.339c0-4.073.277-8.665,5.235-9.849,3.663-.874,7.448,1.04,9.373,6.363l3.851-.919.819,3.464-3.774.9a16.213,16.213,0,0,1-.432,7.536l-4.67-.719a14.563,14.563,0,0,0,.531-5.721L199.445,78.4c0,4.05-.266,8.577-5.146,9.75C190.7,89.006,186.962,87.124,185,81.845Zm14.475-7.116,4.914-1.173c-.852-1.737-2.025-2.213-3.165-1.948S199.6,73.092,199.479,74.729Zm-6.917,7.946c1.206-.288,1.627-1.45,1.793-3.065l-4.781,1.107C190.371,82.388,191.455,82.941,192.562,82.675Z" transform="translate(-180.3 -65.916)"/></g><g class="i" transform="translate(80.306 6.026)"><path d="M203.9,99.221a13.842,13.842,0,0,1,2.545-1.2,23.949,23.949,0,0,0,6.275-4.15,23.582,23.582,0,0,0,3.4-3.862,22.7,22.7,0,0,0,2.7-5.212,20.873,20.873,0,0,0,.885-3.065,24.069,24.069,0,0,0,.443-3.32,22.279,22.279,0,0,0-.066-3.431,23.784,23.784,0,0,0-.6-3.475,24.756,24.756,0,0,0-1.107-3.32,22.491,22.491,0,0,0-1.594-3.032,21.025,21.025,0,0,0-1.97-2.667,21.554,21.554,0,0,0-2.213-2.213,22.909,22.909,0,0,0-4.891-3.32,23.55,23.55,0,0,0-4.836-1.749,24.28,24.28,0,0,0-7.47-.575,13.966,13.966,0,0,1-2.811.188,6.64,6.64,0,0,1,2.667-.786,20.839,20.839,0,0,1,7.813,0,22.687,22.687,0,0,1,10.513,5,22.885,22.885,0,0,1,6.352,8.488,22.8,22.8,0,0,1,1.881,11.089A23.318,23.318,0,0,1,220.3,85.41a23.03,23.03,0,0,1-6.806,9.451,21.337,21.337,0,0,1-6.828,3.807,6.717,6.717,0,0,1-2.767.553Z" transform="translate(-192.59 -53.666)"/></g><path class="j" d="M203.748,99.81a1.56,1.56,0,0,1,.354-.122l1.051-.321a11.938,11.938,0,0,0,1.682-.587,17.193,17.193,0,0,0,2.213-.985,22.355,22.355,0,0,0,5.423-3.8,22.819,22.819,0,0,0,7.282-17.342A22.509,22.509,0,0,0,218.135,65.2a24.114,24.114,0,0,0-1.948-2.6,24.79,24.79,0,0,0-2.479-2.3,21.535,21.535,0,0,0-5.821-3.586,22.687,22.687,0,0,0-6.85-1.737,23.074,23.074,0,0,0-14.055,3.132,22.72,22.72,0,0,0-5.367,4.493,21.746,21.746,0,0,0-3.807,5.744,20.186,20.186,0,0,0-1.837,6.286,22.288,22.288,0,0,0,7.924,20.274,22.9,22.9,0,0,0,7.68,4.205,22.266,22.266,0,0,0,6.518,1.107,18.921,18.921,0,0,0,2.424,0,13.379,13.379,0,0,0,1.771-.188l1.107-.166a1.528,1.528,0,0,1,.365,0,1.251,1.251,0,0,1-.354.1l-1.107.21a10.856,10.856,0,0,1-1.771.243,16.6,16.6,0,0,1-2.446.1,22.134,22.134,0,0,1-6.64-1.04A22.775,22.775,0,0,1,175.45,74.589a26.054,26.054,0,0,1,.653-3.254,26.48,26.48,0,0,1,1.206-3.187,22.211,22.211,0,0,1,3.829-5.865,23.1,23.1,0,0,1,5.6-4.6,25.121,25.121,0,0,1,6.939-2.756,25.675,25.675,0,0,1,7.448-.465,23.063,23.063,0,0,1,7.049,1.715,21.923,21.923,0,0,1,5.954,3.674,24.763,24.763,0,0,1,2.446,2.368,22.731,22.731,0,0,1,3.353,24.944,23.074,23.074,0,0,1-5.279,7.116,22.056,22.056,0,0,1-5.533,3.752,17.542,17.542,0,0,1-2.213.952,11.554,11.554,0,0,1-1.715.531l-1.107.266A1.517,1.517,0,0,1,203.748,99.81Z" transform="translate(-114.135 -47.565)"/><path class="h" d="M170.307,75.867a2.823,2.823,0,0,1-.055-.93,17.519,17.519,0,0,1,.2-2.5,26.173,26.173,0,0,1,7.271-14.686,19.574,19.574,0,0,1,1.881-1.671c.476-.354.741-.542.775-.509s-.952.919-2.368,2.468a30.1,30.1,0,0,0-4.615,6.729,30.511,30.511,0,0,0-2.59,7.747C170.473,74.561,170.406,75.867,170.307,75.867Z" transform="translate(-114.669 -47.437)"/><path class="h" d="M170.212,78.754c-.155,0-.31-.575-.332-1.306s.089-1.317.255-1.328.3.587.321,1.306S170.367,78.743,170.212,78.754Z" transform="translate(-114.707 -45.245)"/></g></svg>