<svg xmlns="http://www.w3.org/2000/svg" xmlns:xlink="http://www.w3.org/1999/xlink" width="89" height="89" viewBox="0 0 89 89"><defs><style>.a{fill:#fdf5f3;}.b{fill:url(#a);}</style><linearGradient id="a" x1="0.853" y1="0.581" x2="0.399" y2="0.062" gradientUnits="objectBoundingBox"><stop offset="0" stop-color="#da3733"/><stop offset="1" stop-color="#f4774d"/></linearGradient></defs><rect class="a" width="89" height="89"/><path class="b" d="M76.86,104.74a21.933,21.933,0,1,1,4.094-18.808l2.678.008a1.855,1.855,0,0,1,1.606,2.776q-2.292,3.971-4.582,7.944a1.859,1.859,0,0,1-3.226.022q-2.257-3.909-4.505-7.811a1.864,1.864,0,0,1,1.52-2.938H77.1a18.214,18.214,0,1,0-3.145,16.512l2.908,2.3ZM50.72,95.015l4.319-.428c.354,1.956,1.2,3.267,2.694,3.849V92.319c-3.21-.913-6.186-2.521-6.186-6.392,0-3.731,2.934-5.54,6.186-6.009V77.432h3.8v2.494c3.518.5,6.225,2.426,6.369,6.575l-4.442.152A3.308,3.308,0,0,0,61.536,83.8v4.9c3.817.982,7.013,2.426,7.013,7.046,0,4.332-3.325,6.236-7.013,6.677v2.462h-3.8v-2.491c-3.961-.549-6.474-2.835-7.013-7.373Zm10.816,3.55c1.365-.361,2.572-1.207,2.572-2.8,0-1.326-1.2-2.043-2.572-2.495Zm-3.8-14.885c-1.027.27-1.959.841-1.959,1.95,0,.983.9,1.614,1.959,2.039Z" transform="translate(-17.881 -46.354)"/></svg>