<svg xmlns="http://www.w3.org/2000/svg" width="18.25" height="20.25" viewBox="0 0 18.25 20.25"><defs><style>.a{stroke:#000;stroke-width:0.25px;}</style></defs><path class="a" d="M37.929,6.833a4.5,4.5,0,0,0,9,0,4.5,4.5,0,0,0-9,0Zm8.314,0a3.816,3.816,0,0,1-7.629,0,3.816,3.816,0,0,1,7.629,0Zm-3.814-2.25a.338.338,0,0,1,.343.333v.141A1,1,0,0,1,43.457,6a.343.343,0,0,1-.686,0,.343.343,0,0,0-.686,0v.135a.333.333,0,0,0,.241.318l.409.124a1,1,0,0,1,.722.955v.135a1.009,1.009,0,0,1-.814.978V8.75a.343.343,0,0,1-.686,0v-.2a1,1,0,0,1-.557-.888.343.343,0,0,1,.686,0,.343.343,0,0,0,.686,0V7.532a.333.333,0,0,0-.241-.318l-.409-.124a1,1,0,0,1-.722-.955V6a1,1,0,0,1,.686-.943V4.917A.338.338,0,0,1,42.429,4.583ZM48,13.417v4.25A2.37,2.37,0,0,1,45.6,20H32.4A2.37,2.37,0,0,1,30,17.667V1.333A1.354,1.354,0,0,1,31.371,0H42.514a1.354,1.354,0,0,1,1.371,1.333.343.343,0,0,1-.686,0,.677.677,0,0,0-.686-.667H31.371a.677.677,0,0,0-.686.667V17.667A1.693,1.693,0,0,0,32.4,19.333H43.923a2.3,2.3,0,0,1-.723-1.667V12.458a.343.343,0,0,1,.686,0v5.208a1.715,1.715,0,0,0,3.429,0v-4.25a.677.677,0,0,0-.686-.667H45.171a.333.333,0,1,1,0-.667h1.457A1.354,1.354,0,0,1,48,13.417ZM33,8.958a.338.338,0,0,1,.343-.333h2.914a.333.333,0,1,1,0,.667H33.343A.338.338,0,0,1,33,8.958Zm0-3.75a.338.338,0,0,1,.343-.333h2.914a.333.333,0,1,1,0,.667H33.343A.338.338,0,0,1,33,5.208Zm7.886,7.5a.338.338,0,0,1-.343.333h-7.2a.333.333,0,1,1,0-.667h7.2A.338.338,0,0,1,40.886,12.708Zm0,3.5a.338.338,0,0,1-.343.333h-7.2a.333.333,0,1,1,0-.667h7.2A.338.338,0,0,1,40.886,16.208Z" transform="translate(-29.875 0.125)"/></svg>