<svg xmlns="http://www.w3.org/2000/svg" xmlns:xlink="http://www.w3.org/1999/xlink" width="2360.883" height="1272.182" viewBox="0 0 2360.883 1272.182"><defs><style>.a{opacity:0.06;fill:url(#a);}.b,.c,.d,.k{fill:none;}.b{stroke:#62af81;stroke-width:10px;opacity:0.148;}.c{stroke:#fbd55b;}.c,.d{stroke-width:5px;}.d{stroke:#f07038;}.e{fill:#3a83f7;}.f{fill:#52b487;stroke:#52b487;}.g{fill:#fa8016;stroke:#f98016;}.h{fill:#d7322d;stroke:#fdfdfd;}.i{fill:#fff;opacity:0.2;}.j,.l{stroke:none;}.l{fill:#f07038;}</style><linearGradient id="a" x1="0.114" y1="0.067" x2="0.805" y2="0.897" gradientUnits="objectBoundingBox"><stop offset="0" stop-color="#da3733"/><stop offset="1" stop-color="#e06135"/></linearGradient></defs><g transform="translate(83 353.355)"><path class="a" d="M527.963,0C787.507,0,981.491,251.375,939.891,455.441S613.453,823.855,353.909,823.855,0,639.429,0,411.927,268.42,0,527.963,0Z" transform="translate(1332.36 -353.355)"/><g class="b" transform="translate(83 755)"><circle class="j" cx="66" cy="66" r="66"/><circle class="k" cx="66" cy="66" r="61"/></g><g transform="translate(99 262.871)"><g class="c" transform="translate(1399 470.129)"><circle class="j" cx="42.5" cy="42.5" r="42.5"/><circle class="k" cx="42.5" cy="42.5" r="40"/></g><g class="d" transform="translate(0 270.129)"><circle class="j" cx="31" cy="31" r="31"/><circle class="k" cx="31" cy="31" r="28.5"/></g><g transform="matrix(1, 0.017, -0.017, 1, 358.849, 419.097)"><path class="e" d="M93.093,29.606,79.8,31.069,83.95,35.53l-30.9,29.5L29.732,39.8,6.743,61.746l2.762,2.893L29.554,45.5,52.871,70.731,86.7,38.438l.014-.014-.014.014,4.192,4.48Z"/></g><g transform="translate(1447.583 147.126) rotate(7)"><g transform="translate(13.353 7.677)"><path class="f" d="M51.672,960.04c-.228,0-.466.008-.7.024-3.107.219-6.9,1.795-10.133,2.147a25.878,25.878,0,0,1-7.238-.482c-2.162-.357-4.116-.677-5.814.121l-.024.024a3.392,3.392,0,0,0-1.93,3.185,7.724,7.724,0,0,0,1.641,3.86,39.867,39.867,0,0,0,6.9,6.948c-10.583,5.982-17.627,15.2-20.072,24.173-2.5,9.178-.148,18.159,8.106,22.75l.048.024c4.046,1.925,6.392,1.606,9.023.82a32.31,32.31,0,0,1,11.6-1.906c7.112.072,10.64,1.992,13.51,3.04a6.879,6.879,0,0,0,4.2.458c1.445-.365,2.92-1.365,4.8-3.281a15.655,15.655,0,0,0,4.343-11.218,32.443,32.443,0,0,0-3.305-13.438,59.446,59.446,0,0,0-19.3-22.943,61.343,61.343,0,0,0,6.1-6.393,14.933,14.933,0,0,0,2.027-3.185,3.028,3.028,0,0,0,.1-2.75,3.768,3.768,0,0,0-1.954-1.665,5.526,5.526,0,0,0-1.93-.314Zm-.627,1.182a5.227,5.227,0,0,1,2.147.217,2.574,2.574,0,0,1,1.375,1.182c.186.317.158.866-.193,1.689a13.979,13.979,0,0,1-1.858,2.919,63.238,63.238,0,0,1-6.441,6.731.578.578,0,0,0-.048.072l-10.542,1.182-.048.024a40.916,40.916,0,0,1-7.02-7,6.877,6.877,0,0,1-1.423-3.257,2.057,2.057,0,0,1,1.327-2.1c1.263-.572,2.966-.375,5.09-.024a26.787,26.787,0,0,0,7.551.507c3.495-.381,7.32-1.953,10.084-2.147Zm-4.511,13.92a58.55,58.55,0,0,1,19.035,22.629,31.338,31.338,0,0,1,3.209,12.931,14.443,14.443,0,0,1-4,10.422c-1.809,1.842-3.135,2.7-4.27,2.991a5.732,5.732,0,0,1-3.522-.458c-2.725-.995-6.552-3.014-13.872-3.088a33.87,33.87,0,0,0-11.966,1.954c-2.541.759-4.334,1.083-8.154-.724v-.024c-7.779-4.327-9.955-12.6-7.551-21.423s9.466-18.087,20.193-23.908a.577.577,0,0,0,.145-.1l3.088-.338a15.443,15.443,0,0,0-1.255,4.849.579.579,0,1,0,1.134.193,15.492,15.492,0,0,1,1.158-4.511c.181-.311.282-.337.29-.338s.115,0,.338.217a12.286,12.286,0,0,1,1.858,3.088c.735,1.556,1.555,3.562,2.509,5.862a.585.585,0,1,0,1.086-.434c-.955-2.3-1.8-4.314-2.557-5.911a13.047,13.047,0,0,0-1.978-3.305l5.09-.579Zm-5.139,14.741a.579.579,0,0,0-.507.579v.989a9.086,9.086,0,0,0-3.209.651,5.23,5.23,0,0,0-2.461,1.954,4.9,4.9,0,0,0-.82,2.75,4.468,4.468,0,0,0,.676,2.437,5.237,5.237,0,0,0,2.075,1.809,17.549,17.549,0,0,0,3.739,1.23v6.948a6.9,6.9,0,0,1-2.027-.507,4.446,4.446,0,0,1-1.978-1.52,5.417,5.417,0,0,1-.8-2.413l-2.437.217a6.625,6.625,0,0,0,1.062,3.522,6.238,6.238,0,0,0,2.823,2.316,10.166,10.166,0,0,0,3.353.724v1.351a.579.579,0,1,0,1.158,0v-1.3a8.92,8.92,0,0,0,3.691-.772,5.864,5.864,0,0,0,2.557-2.147,5.256,5.256,0,0,0,.893-2.919,4.849,4.849,0,0,0-.82-2.774,5.911,5.911,0,0,0-2.509-2,23.726,23.726,0,0,0-3.812-1.134v-6.128a4.766,4.766,0,0,1,2.726.917,4,4,0,0,1,1.351,2.8l2.485-.193a5.957,5.957,0,0,0-.965-3.088,5.53,5.53,0,0,0-2.557-2.051,9.311,9.311,0,0,0-3.04-.651v-1.013a.579.579,0,0,0-.651-.579Zm-.507,3.86v5.862a8.914,8.914,0,0,1-3.257-1.23,2.223,2.223,0,0,1-.748-1.737,2.572,2.572,0,0,1,1.062-2.075,5.091,5.091,0,0,1,2.943-.82Zm1.158,8.83c1.1.279,1.973.5,2.364.651a3.964,3.964,0,0,1,1.761,1.158,2.5,2.5,0,0,1,.531,1.592,2.849,2.849,0,0,1-.555,1.689,3.636,3.636,0,0,1-1.689,1.206,7.055,7.055,0,0,1-2.413.434v-6.731Z" transform="translate(-13.353 -960.04)"/></g></g><g transform="translate(1618.179 579.406) rotate(25)"><path class="g" d="M16,21a4,4,0,0,0-4,4,1,1,0,0,0,2,0,2,2,0,0,1,4,0,1,1,0,0,0,2,0A4,4,0,0,0,16,21Z"/><path class="g" d="M60.26,24.31a6,6,0,0,0-6.58,1.92,16.87,16.87,0,0,0-3.25-4.6,10.2,10.2,0,1,0-16.59-7.95c0,.19,0,.37,0,.56-.69-.08-1.38-.14-2.08-.17A9,9,0,0,0,23,7a1,1,0,0,0-1,1v.53A9,9,0,0,0,17,7a1,1,0,0,0-1,1v9.09A21.43,21.43,0,0,0,7.61,24H4a3,3,0,0,0-3,3v7.47a3,3,0,0,0,2.21,2.9l3.37.91a19.77,19.77,0,0,0,8.57,8.2l.69,5.37a2.83,2.83,0,0,0,3,2.15h2.34a2.83,2.83,0,0,0,3-2.15l.29-2.3a34.45,34.45,0,0,0,11.1,0l.29,2.3a2.83,2.83,0,0,0,3,2.15H41.2a2.83,2.83,0,0,0,3-2.15l.69-5.37C51.21,43.1,55,37.72,55,32a13,13,0,0,0-.45-3.33,4,4,0,0,1,5.08-2.46,3,3,0,0,1,1.92,3.84,2.23,2.23,0,0,1-2.82,1.41,1.57,1.57,0,0,1-1-2,1.07,1.07,0,0,1,1.35-.68,1,1,0,1,0,.63-1.89,3.07,3.07,0,0,0-3.88,1.94,3.59,3.59,0,0,0,2.27,4.53,4.12,4.12,0,0,0,1.33.22,4.24,4.24,0,0,0,4-2.9,5,5,0,0,0-3.17-6.37ZM44,5.48a8.2,8.2,0,0,1,4.31,15.18,7.81,7.81,0,0,1-2.32,1,23.13,23.13,0,0,0-9.25-4.14,8.24,8.24,0,0,1-.8-2.3,7.88,7.88,0,0,1-.14-1.5A8.21,8.21,0,0,1,44,5.48ZM22,11.13V15a31.59,31.59,0,0,0-4,1.25V9.07a7,7,0,0,1,4,2.06ZM43.47,45l-.08.06a.79.79,0,0,0-.15.12.86.86,0,0,0-.13.14l-.09.16a.82.82,0,0,0-.06.19s0,.06,0,.09l-.76,5.88c0,.1-.35.41-1,.41H38.83c-.66,0-1-.31-1-.41l-.53-4.07a.99.99,0,0,0-1.97.04,33.44,33.44,0,0,1-10.66,0,.99.99,0,0,0-1.97-.04l-.53,4.07c0,.1-.34.41-1,.41H18.83c-.66,0-1-.31-1-.41l-.76-5.87a.32.32,0,0,0,0-.09.7.7,0,0,0-.06-.19l-.09-.16a.86.86,0,0,0-.13-.14.79.79,0,0,0-.15-.12.318.318,0,0,0-.08-.06,18,18,0,0,1-8.37-8h0A1,1,0,0,0,8,36.8l-.11-.13-.15-.09a.87.87,0,0,0-.19-.1h0l-3.78-1a1,1,0,0,1-.74-1V27a1,1,0,0,1,1-1h4.1a1,1,0,0,0,.35-.07h.07a.8.8,0,0,0,.27-.18h0A.69.69,0,0,0,9,25.54a19.42,19.42,0,0,1,8.45-6.92A28.44,28.44,0,0,1,22,17v3a1,1,0,0,0,2,0V9.07a7,7,0,0,1,6,6.07A8.11,8.11,0,0,1,30,16a6.91,6.91,0,0,1-.94,3.49,1,1,0,1,0,1.72,1.02A8.87,8.87,0,0,0,32,16.08c.75.05,1.48.12,2.2.21a6.65,6.65,0,0,0,.23.76h-.31a1.006,1.006,0,1,0-.22,2c.09,0,8.63,1,12.33,5.63a1.012,1.012,0,0,0,1.55-1.3,2,2,0,0,0-.14-.16,7.3,7.3,0,0,0,1.07-.48A12.84,12.84,0,0,1,53,32C53,37.09,49.44,41.93,43.47,45Z"/><path class="g" d="M43.38,15.75a1,1,0,0,0-1.87.49A1.51,1.51,0,0,0,43,17.75h0v.53a1,1,0,0,0,2,0v-.53h0a1.51,1.51,0,0,0,1.51-1.51v-2A1.51,1.51,0,0,0,45,12.73H43.51V11.61H44.7a1,1,0,0,0,1.87-.49,1.51,1.51,0,0,0-1.51-1.51h0V9.08a1,1,0,0,0-2,0v.53h0a1.51,1.51,0,0,0-1.51,1.51v2.05A1.51,1.51,0,0,0,43,14.68h1.55v1.07Z"/></g><g transform="translate(65.232 32.269) rotate(-30)"><g transform="translate(6.568 2.5)"><path class="h" d="M68.868,18.768A16.249,16.249,0,0,0,40.417,8.018,6.036,6.036,0,0,0,36.26,6.37H32.677a6.163,6.163,0,0,0-6.163,6.163v1.792a20.248,20.248,0,0,0-12.47,18.7v5.3a9.065,9.065,0,0,1-1.935,5.518L8.1,48.724a6.709,6.709,0,0,0-.86,7.167,6.8,6.8,0,0,0,6.092,3.87h9.961a11.114,11.114,0,0,0,22.216,0h9.961A6.771,6.771,0,0,0,60.7,48.724l-4.013-4.873a8.638,8.638,0,0,1-1.935-5.518v-3.44A16.308,16.308,0,0,0,68.868,18.768ZM52.528,7.015A11.753,11.753,0,1,1,40.775,18.768,11.806,11.806,0,0,1,52.528,7.015ZM34.4,66.067a6.489,6.489,0,0,1-6.522-6.235H40.99A6.654,6.654,0,0,1,34.4,66.067Zm22.861-14.4a2.13,2.13,0,0,1,.287,2.365,2.242,2.242,0,0,1-2.007,1.29H13.328a2.242,2.242,0,0,1-2.007-1.29,2.13,2.13,0,0,1,.287-2.365l4.013-4.873A13.141,13.141,0,0,0,18.559,38.4V33.1a15.792,15.792,0,0,1,10.893-15.05,2.237,2.237,0,0,0,1.577-2.15V12.533a1.591,1.591,0,0,1,1.577-1.577h3.583a1.534,1.534,0,0,1,1.5,1.218A16.134,16.134,0,0,0,36.26,18.84,16.355,16.355,0,0,0,50.235,34.964v3.512a13.715,13.715,0,0,0,2.938,8.385Z" transform="translate(-6.568 -2.5)"/><path class="h" d="M65.172,27.79a2.249,2.249,0,0,0,3.153,0l6.02-6.02a2.28,2.28,0,1,0-3.225-3.225l-4.372,4.443-2.078-2.15a2.28,2.28,0,1,0-3.225,3.225Z" transform="translate(-21.935 -6.864)"/></g></g></g><g class="i" transform="translate(-83 -52)"><path class="j" d="M 139 275 C 65.66354370117188 275 6 214.6635437011719 6 140.5 C 6 66.33645629882812 65.66354370117188 6 139 6 C 212.3364562988281 6 272 66.33645629882812 272 140.5 C 272 214.6635437011719 212.3364562988281 275 139 275 Z"/><path class="l" d="M 139 12 C 68.97195434570312 12 12 69.64485168457031 12 140.5 C 12 211.3551483154297 68.97195434570312 269 139 269 C 209.0280456542969 269 266 211.3551483154297 266 140.5 C 266 69.64485168457031 209.0280456542969 12 139 12 M 139 0 C 215.7675476074219 0 278 62.90400695800781 278 140.5 C 278 218.0960083007812 215.7675476074219 281 139 281 C 62.23240661621094 281 0 218.0960083007812 0 140.5 C 0 62.90400695800781 62.23240661621094 0 139 0 Z"/></g></g></svg>