<svg xmlns="http://www.w3.org/2000/svg" width="31.369" height="28.804" viewBox="0 0 31.369 28.804"><defs><style>.a{fill:#1B9CC8;}</style></defs><path class="a" d="M63.4,92.527a14.394,14.394,0,1,1,2.687-12.343l1.758.005A1.218,1.218,0,0,1,68.9,82.011q-1.5,2.606-3.007,5.213a1.22,1.22,0,0,1-2.117.014q-1.481-2.565-2.957-5.126a1.224,1.224,0,0,1,1-1.928h1.74A11.953,11.953,0,1,0,61.487,91.02L63.4,92.527ZM46.241,86.145l2.835-.281a3,3,0,0,0,1.768,2.526V84.376c-2.107-.6-4.06-1.654-4.06-4.2,0-2.448,1.925-3.636,4.06-3.944V74.606h2.5v1.637c2.309.327,4.085,1.592,4.18,4.315l-2.915.1a2.171,2.171,0,0,0-1.265-1.873V82c2.505.645,4.6,1.592,4.6,4.624,0,2.843-2.182,4.093-4.6,4.382v1.615h-2.5V90.984c-2.6-.36-4.248-1.86-4.6-4.839Zm7.1,2.33a1.946,1.946,0,0,0,1.688-1.837c0-.87-.789-1.34-1.688-1.637Zm-2.5-9.769c-.674.177-1.286.552-1.286,1.28,0,.645.591,1.059,1.286,1.338Z" transform="translate(-37.69 -69.21)"/></svg>