<svg xmlns="http://www.w3.org/2000/svg" xmlns:xlink="http://www.w3.org/1999/xlink" width="43" height="43" viewBox="0 0 43 43"><defs><style>.a{fill:url(#a);}</style><linearGradient id="a" x1="0.853" y1="0.581" x2="0.399" y2="0.062" gradientUnits="objectBoundingBox"><stop offset="0" stop-color="#da3733"/><stop offset="1" stop-color="#f4774d"/></linearGradient></defs><g transform="translate(-100.139 -27.731)"><path class="a" d="M164.922,133.145a21.5,21.5,0,1,0-21.5,21.5A21.525,21.525,0,0,0,164.922,133.145Zm-21.5,18.952a18.952,18.952,0,1,1,18.952-18.952A18.974,18.974,0,0,1,143.422,152.1Zm0,0" transform="translate(-21.783 -83.913)"/><path class="a" d="M151.308,155.308a1.268,1.268,0,0,0,1.438-1.115,15.549,15.549,0,0,1,4.742-9.071,13.326,13.326,0,0,1,18.338,0,15.549,15.549,0,0,1,4.742,9.071,1.284,1.284,0,0,0,1.234,1.132,1.124,1.124,0,0,0,.2-.018,1.342,1.342,0,0,0,1.032-1.551,18.311,18.311,0,0,0-5.582-10.684,15.692,15.692,0,0,0-21.6,0,18.309,18.309,0,0,0-5.583,10.684A1.343,1.343,0,0,0,151.308,155.308Zm0,0" transform="translate(-45.02 -107.152)"/><path class="a" d="M182.006,245.75a1.266,1.266,0,0,0-1.438,1.114,15.546,15.546,0,0,1-4.742,9.07,13.324,13.324,0,0,1-18.338,0,15.546,15.546,0,0,1-4.742-9.07,1.267,1.267,0,0,0-1.438-1.114,1.342,1.342,0,0,0-1.032,1.551,18.309,18.309,0,0,0,5.583,10.684,15.692,15.692,0,0,0,21.6,0,18.312,18.312,0,0,0,5.582-10.684A1.342,1.342,0,0,0,182.006,245.75Zm0,0" transform="translate(-45.02 -195.446)"/><path class="a" d="M225.416,199.737c.34,0,.679-.249.679-.521v-.769a4.383,4.383,0,0,0,4.117-4.66c0-3.077-2.149-4.072-4.117-4.8V184.4c1.583.113,2.171.837,2.714.837.679,0,1-.86,1-1.289,0-1.108-2.171-1.583-3.709-1.629v-.61c0-.272-.34-.521-.679-.521a.6.6,0,0,0-.656.521v.656c-2.149.226-4.3,1.357-4.3,4.207,0,2.9,2.262,3.71,4.3,4.434v5.315c-2.307-.181-2.918-1.764-3.664-1.764-.565,0-1.04.746-1.04,1.289,0,1.108,1.9,2.623,4.7,2.669v.7A.6.6,0,0,0,225.416,199.737Zm.543-8.234a2.645,2.645,0,0,1,1.99,2.534,2.151,2.151,0,0,1-1.99,2.239Zm-3.235-5.158c0-1.176.9-1.741,2.172-1.9v4.117C223.7,188.11,222.724,187.635,222.724,186.345Zm0,0" transform="translate(-103.538 -142.131)"/></g></svg>