<svg xmlns="http://www.w3.org/2000/svg" width="69.785" height="61.06" viewBox="0 0 69.785 61.06"><defs><style>.a{fill:#52b487;}</style></defs><g transform="translate(0 13.083)"><g transform="translate(0 0)"><path class="a" d="M30.531,132.354v-4.362H4.362A4.369,4.369,0,0,0,0,132.354v8.723H31.451A39.051,39.051,0,0,1,30.531,132.354Z" transform="translate(0 -127.992)"/></g></g><g transform="translate(0 34.891)"><g transform="translate(0 0)"><path class="a" d="M69.606,287.992c-2.975,4.584-7.511,8.483-14.009,12.217a6.553,6.553,0,0,1-6.5.009c-6.5-3.742-11.035-7.646-14.014-12.225H0V309.8a4.366,4.366,0,0,0,4.362,4.362H65.423a4.363,4.363,0,0,0,4.362-4.362V287.992ZM19.627,301.077H10.9a2.181,2.181,0,0,1,0-4.362h8.723a2.181,2.181,0,0,1,0,4.362Z" transform="translate(0 -287.992)"/></g></g><g transform="translate(34.893)"><g transform="translate(0 0)"><path class="a" d="M274.305,32.185a2.189,2.189,0,0,0-1.723,0l-15.265,6.542a2.175,2.175,0,0,0-1.317,2v8.723c0,12,4.436,19.012,16.36,25.881a2.193,2.193,0,0,0,2.172,0c11.924-6.852,16.36-13.865,16.36-25.881V40.729Zm7.388,16.452-8.723,10.9a2.2,2.2,0,0,1-1.705.816h-.092a2.189,2.189,0,0,1-1.723-.968l-4.362-6.542a2.18,2.18,0,0,1,3.629-2.416l2.708,4.061,6.856-8.575a2.182,2.182,0,0,1,3.411,2.722Z" transform="translate(-256 -32.008)"/></g></g></svg>