<svg xmlns="http://www.w3.org/2000/svg" width="88" height="89" viewBox="0 0 88 89"><defs><style>.a{fill:#fdf5f3;}.b{fill:#da3733;}</style></defs><g transform="translate(0)"><rect class="a" width="88" height="89" transform="translate(0)"/><g transform="translate(24.123 24.998)"><g transform="translate(0 0)"><g transform="translate(0 0)"><path class="b" d="M59.163,161.545a11.785,11.785,0,0,1,.224-1.337l-3.358-.5a1.861,1.861,0,0,1-1.385-1.034l-1.524-3.216a.405.405,0,0,0-.754,0l-1.522,3.209a1.867,1.867,0,0,1-1.389,1.042l-3.377.507a.44.44,0,0,0-.34.313.532.532,0,0,0,.117.543l2.421,2.457a1.925,1.925,0,0,1,.524,1.669l-.577,3.491a.506.506,0,0,0,.2.507.367.367,0,0,0,.407.027l3.051-1.667a1.771,1.771,0,0,1,1.724,0l3.045,1.663a.368.368,0,0,0,.405-.028.509.509,0,0,0,.2-.511l-.577-3.485a1.929,1.929,0,0,1,.528-1.674Z" transform="translate(-42.19 -143.27)"/><path class="b" d="M384,271.629a2.8,2.8,0,0,0,0-5.428Z" transform="translate(-354.453 -245.732)"/><path class="b" d="M181.65,7.031a1.407,1.407,0,0,1,.117-2.1c.36-.288.727-.574,1.088-.844a5,5,0,0,1,4.784-.756c1.567.787,2.02,2.851,2.1,4.65a12.069,12.069,0,0,1,2.814,0C192.389,3.518,190.5,1.617,188.9.814c-2.638-1.311-5.858-.388-7.735,1.025-.549.411-1.107.853-1.63,1.282a1.407,1.407,0,0,1-1.887-.091l-.724-.723-1.082,6.136,6.136-1.082Z" transform="translate(-162.314 -0.183)"/><path class="b" d="M129.832,407.985c-.36.288-.727.573-1.088.844a5,5,0,0,1-4.784.756c-1.578-.793-2.025-2.879-2.1-4.688a10.567,10.567,0,0,1-2.812,0c.151,4.489,2.046,6.4,3.649,7.2,2.636,1.311,5.856.388,7.731-1.024.549-.412,1.107-.854,1.63-1.282a1.407,1.407,0,0,1,1.89.091l.722.722,1.082-6.136-6.136,1.083.331.33a1.407,1.407,0,0,1-.118,2.1Z" transform="translate(-109.89 -373.369)"/><path class="b" d="M338.286,177.487A2.814,2.814,0,0,0,340.4,180.2v-5.428A2.814,2.814,0,0,0,338.286,177.487Z" transform="translate(-312.257 -161.339)"/><path class="b" d="M10.552,139.722a10.523,10.523,0,0,0,8.28-4.017,11.834,11.834,0,0,1-1.921-5.86l-.893.9a.53.53,0,0,0-.134.457l.577,3.489a1.937,1.937,0,0,1-.781,1.885,1.789,1.789,0,0,1-1.892.113l-3.053-1.667a.346.346,0,0,0-.359-.007l-3.06,1.674a1.8,1.8,0,0,1-1.892-.113,1.937,1.937,0,0,1-.781-1.885L5.22,131.2a.51.51,0,0,0-.134-.45l-2.42-2.462a1.911,1.911,0,0,1-.45-1.977,1.829,1.829,0,0,1,1.463-1.259l3.377-.507a.454.454,0,0,0,.331-.26l1.52-3.2a1.807,1.807,0,0,1,3.292,0l1.52,3.208a.462.462,0,0,0,.331.253l3.377.507a1.275,1.275,0,0,1,.176.042,12.025,12.025,0,0,1,1.231-2.462,10.924,10.924,0,0,0-8.28-4.017,10.552,10.552,0,1,0,0,21.1Z" transform="translate(0 -109.504)"/><path class="b" d="M250.153,118.779a10.71,10.71,0,0,0-3.961,0,10.556,10.556,0,1,0,3.961,0Zm2.244,13.887a4.226,4.226,0,0,1-3.517,4.158v.767a.7.7,0,1,1-1.407,0v-.767a4.226,4.226,0,0,1-3.517-4.158.7.7,0,0,1,.7-.7.713.713,0,0,1,.7.7,2.814,2.814,0,0,0,2.11,2.715v-5.593a4.216,4.216,0,0,1,0-8.315v-.767a.7.7,0,1,1,1.407,0v.767a4.226,4.226,0,0,1,3.517,4.158.7.7,0,1,1-1.407,0,2.814,2.814,0,0,0-2.111-2.715v5.593A4.226,4.226,0,0,1,252.4,132.666Z" transform="translate(-219.333 -109.483)"/></g></g></g></g></svg>