<svg xmlns="http://www.w3.org/2000/svg" width="19.817" height="17.804" viewBox="0 0 19.817 17.804"><defs><style>.a{fill:#232021;stroke:#fff;stroke-width:0.5px;}</style></defs><g transform="translate(0.267 0.25)"><path class="a" d="M25,61.311a1,1,0,0,0,.706-.292L31.319,55.4l2.289,2.289a1,1,0,0,0,1.412,0L41.3,51.409v2.248a1,1,0,0,0,2,0V49a1,1,0,0,0-1-1H37.642a1,1,0,0,0,0,2H39.89l-5.576,5.576-2.289-2.289a1,1,0,0,0-1.412,0l-6.323,6.323a1,1,0,0,0,.706,1.7Z" transform="translate(-23.998 -48)"/><path class="a" d="M42.3,416H25a1,1,0,1,0,0,2H42.3a1,1,0,1,0,0-2Z" transform="translate(-24 -400.693)"/></g></svg>