<svg xmlns="http://www.w3.org/2000/svg" width="42.516" height="26.152" viewBox="0 0 42.516 26.152"><defs><style>.a,.b{fill:#fff;}.a{stroke:#fff;stroke-width:0.5px;}</style></defs><g transform="translate(0.25 -5.756)"><g transform="translate(0 6.006)"><path class="a" d="M12.826,0A12.819,12.819,0,0,0,2.939,20.986c0,.006.005.015.01.021a12.822,12.822,0,0,0,4.843,3.614l.064.028c.15.063.3.122.454.179l.18.068q.2.071.4.134c.085.027.17.054.256.08q.176.053.354.1c.1.028.209.054.315.08s.213.051.321.074.241.048.362.071c.1.018.195.037.293.053.135.022.27.039.406.056.088.011.175.024.263.033.154.016.309.028.465.038.072.005.144.013.217.017q.341.019.688.02c.231,0,.461-.007.689-.019.073,0,.145-.012.217-.017.156-.011.311-.022.465-.038.088-.009.175-.022.263-.033.136-.018.271-.035.406-.056.1-.016.2-.035.293-.053.121-.022.242-.045.362-.071s.214-.048.321-.074.21-.052.315-.08.237-.066.354-.1c.086-.026.171-.053.256-.08q.2-.064.4-.134l.18-.068c.153-.057.3-.116.454-.179l.064-.028A12.826,12.826,0,0,0,22.7,21.008c.005-.006.006-.015.01-.021A12.82,12.82,0,0,0,12.826,0Zm5.2,23.608L18,23.617c-.153.074-.308.143-.464.21l-.106.045q-.205.086-.415.164l-.175.064c-.124.044-.248.086-.373.127-.078.025-.156.048-.234.071-.111.033-.223.065-.336.1-.095.025-.191.048-.286.071s-.2.048-.3.07-.222.044-.333.064c-.09.017-.18.034-.271.049-.125.02-.252.035-.378.051-.08.01-.159.022-.24.031-.144.015-.289.025-.434.035-.065,0-.129.012-.194.015q-.317.017-.637.017t-.636-.017c-.065,0-.129-.01-.194-.015-.145-.01-.29-.02-.434-.035-.081-.009-.16-.021-.24-.031-.126-.016-.253-.032-.378-.051-.091-.015-.181-.032-.271-.049-.112-.02-.223-.041-.333-.064s-.2-.046-.3-.07-.192-.046-.286-.071c-.112-.03-.224-.062-.336-.1-.078-.023-.156-.047-.234-.071q-.188-.06-.373-.127l-.175-.064q-.209-.078-.415-.164l-.106-.045c-.156-.067-.312-.137-.465-.21l-.019-.009a12.029,12.029,0,0,1-3.879-2.99,9.436,9.436,0,0,1,6.176-6.472c.059.036.121.069.183.1.036.02.071.041.108.061.127.068.257.131.389.188.1.044.206.082.31.121l.062.023a5.456,5.456,0,0,0,3.7,0l.062-.023c.1-.038.209-.076.31-.121.132-.057.261-.12.389-.188l.108-.061c.061-.034.124-.067.183-.1A9.439,9.439,0,0,1,21.9,20.618,12.041,12.041,0,0,1,18.023,23.608Zm-9.9-14.2a4.7,4.7,0,1,1,7.261,3.941,4.529,4.529,0,0,1-.524.293l-.064.031a4.81,4.81,0,0,1-3.942,0l-.064-.031a4.494,4.494,0,0,1-.524-.293A4.7,4.7,0,0,1,8.123,9.406Zm14.42,10.4a10.3,10.3,0,0,0-6.005-6.274,5.558,5.558,0,1,0-7.423,0A10.3,10.3,0,0,0,3.109,19.8,11.968,11.968,0,1,1,24.8,12.826,11.9,11.9,0,0,1,22.543,19.8Z"/></g><g transform="translate(29 30.617) rotate(-90)"><path class="b" d="M1.761,5.872l4.11,4.11v1.761L0,5.872,5.871,0V1.761Z" transform="translate(7.871 1.523)"/></g></g></svg>