<svg xmlns="http://www.w3.org/2000/svg" width="83" height="83" viewBox="0 0 83 83"><defs><style>.a{fill:#cbc7f7;}.b{fill:#6256ee;stroke:#cbc7f7;}</style></defs><circle class="a" cx="41.5" cy="41.5" r="41.5"/><g transform="translate(24.055 19.366)"><path class="b" d="M309.566,44.777h-4.2l.212-.423a5.427,5.427,0,0,0-9.507-5.219l-2.33,3.883-2.33-3.883a5.427,5.427,0,0,0-9.507,5.219l.211.423h-4.317a1.765,1.765,0,0,0-1.765,1.765v8.825a1.765,1.765,0,0,0,1.765,1.765h1.765V73.018a1.765,1.765,0,0,0,1.765,1.765h24.711a1.765,1.765,0,0,0,1.765-1.765V57.132h1.765a1.765,1.765,0,0,0,1.765-1.765V46.542A1.764,1.764,0,0,0,309.566,44.777ZM288.385,71.253h-5.3V57.132h5.3Zm0-17.651H279.56v-5.3h8.825Zm-2.327-8.825-1-2a1.9,1.9,0,0,1,3.322-1.824l2.3,3.826Zm9.387,26.477h-3.53V57.132h3.53Zm0-17.651h-3.53v-5.3h3.53Zm3.647-12.651a1.9,1.9,0,0,1,3.323,1.824l-1,2H296.8Zm5.178,30.3h-5.3V57.132h5.3ZM307.8,53.6h-8.825v-5.3H307.8Z" transform="translate(-276.029 -36.499)"/></g></svg>