<svg xmlns="http://www.w3.org/2000/svg" width="19.814" height="19.91" viewBox="0 0 19.814 19.91"><defs><style>.a{fill:none;stroke:#232021;stroke-width:1.5px;}.b{fill:#232021;}</style></defs><g transform="translate(0.752 0.756)"><path class="a" d="M18.233,7.008a1.307,1.307,0,0,0-1.084-.924l-4.861-.672L10.364.815a1.32,1.32,0,0,0-2.437,0L6,5.412l-4.861.672a1.324,1.324,0,0,0-.7,2.3L4.106,11.65l-.753,5.125A1.322,1.322,0,0,0,5.4,18.063l3.742-2.545,3.742,2.548a1.322,1.322,0,0,0,2.049-1.288l-.753-5.127,3.663-3.266A1.312,1.312,0,0,0,18.233,7.008Z" transform="translate(0 -0.003)"/><path class="b" d="M222.51,189.684c.156,0,.311-.114.311-.238v-.352a2.008,2.008,0,0,0,1.886-2.134c0-1.409-.984-1.865-1.886-2.2v-2.1c.725.052.995.383,1.243.383.311,0,.456-.394.456-.591,0-.508-.995-.725-1.7-.746v-.28c0-.124-.156-.238-.311-.238a.273.273,0,0,0-.3.238v.3a1.923,1.923,0,0,0-1.969,1.927c0,1.326,1.036,1.7,1.969,2.031v2.435c-1.057-.083-1.337-.808-1.679-.808-.259,0-.477.342-.477.591,0,.508.87,1.2,2.155,1.223v.321A.274.274,0,0,0,222.51,189.684Zm.249-3.771a1.212,1.212,0,0,1,.912,1.161.985.985,0,0,1-.912,1.026Zm-1.482-2.363c0-.539.414-.8.995-.871v1.886C221.723,184.358,221.277,184.141,221.277,183.55Zm0,0" transform="translate(-213.054 -175.187)"/></g></svg>