<svg xmlns="http://www.w3.org/2000/svg" xmlns:xlink="http://www.w3.org/1999/xlink" width="616.606" height="559.097" viewBox="0 0 616.606 559.097"><defs><clipPath id="a"><path d="M317.079,320.938c-.388.342-1.553,15.278-1.553,15.278s-7.965,15.728-7.872,39.793S300,523.335,300,523.335H490.582s-13.244-92.411-32.03-139.175c0,0-.574-38.38-10.868-49.078,0,0,4.471-15.743-4.658-17.684S317.079,320.938,317.079,320.938Z" transform="translate(-300 -316.982)" fill="#999" stroke="#263238" stroke-linecap="round" stroke-linejoin="round" stroke-width="1"/></clipPath><clipPath id="b"><path d="M336.332,173.211s3.307-10.48-3.788-15.666-6.614,26.084-6.614,26.084l-6.769,3.788s-9.766-25.835-5.046-44.746,23.848-32.31,50.242-25.168c35.415,9.564,27.45,38.567,27.45,38.567s-1.553-8.2-3.229-7.763-7.3,5.822-34.763-3.633c0,0-3.105,2.686-2.406,9.316s-11.086,12.529-12.918,23.568Z" transform="translate(-312.826 -115.554)" fill="#999" stroke="#263238" stroke-linecap="round" stroke-linejoin="round" stroke-width="1"/></clipPath></defs><g transform="translate(-38.304 -27.762)"><g transform="translate(253.964 28.262)"><path d="M222.59,165.7h69.867V109.59" transform="translate(-181.71 -80.013)" fill="none" stroke="#263238" stroke-linecap="round" stroke-linejoin="round" stroke-width="1"/><rect width="5.589" height="10.201" transform="translate(98.233 75.487)" fill="none" stroke="#263238" stroke-linecap="round" stroke-linejoin="round" stroke-width="1"/><rect width="5.589" height="13.43" transform="translate(86.62 72.258)" fill="none" stroke="#263238" stroke-linecap="round" stroke-linejoin="round" stroke-width="1"/><rect width="5.589" height="18.818" transform="translate(75.006 66.871)" fill="none" stroke="#263238" stroke-linecap="round" stroke-linejoin="round" stroke-width="1"/><rect width="5.589" height="24.205" transform="translate(63.377 61.483)" fill="none" stroke="#263238" stroke-linecap="round" stroke-linejoin="round" stroke-width="1"/><rect width="5.589" height="31.813" transform="translate(51.764 53.875)" fill="none" stroke="#263238" stroke-linecap="round" stroke-linejoin="round" stroke-width="1"/><path d="M288.808,152.89s-44.793-9.548-66.218-37.93" transform="translate(-178.061 -77.045)" fill="none" stroke="#263238" stroke-linecap="round" stroke-linejoin="round" stroke-width="1"/><path d="M267.777,114.815l-4.347-1.2V118.4" transform="translate(-220.438 -77.786)" fill="none" stroke="#263238" stroke-linecap="round" stroke-linejoin="round" stroke-width="1"/><path d="M253.12,92.009c1.987-.4,3.99-.745,6.024-1.009" transform="translate(-195.798 -90.286)" fill="none" stroke="#263238" stroke-linecap="round" stroke-linejoin="round" stroke-width="1"/><path d="M303.021,205.961c-16.613,8.539-39.591,9.207-39.591,9.207,11.567-7.934,19.516-19.578,23.537-26.5-12.281-10.589-19.858-24.981-19.858-40.864,0-24.531,18.026-45.553,43.659-54.341" transform="translate(-263.43 -88.926)" fill="none" stroke="#263238" stroke-linecap="round" stroke-linejoin="round" stroke-width="1"/><path d="M274.211,168.115A83.11,83.11,0,0,1,246,163.24" transform="translate(-199.81 -50.366)" fill="none" stroke="#263238" stroke-linecap="round" stroke-linejoin="round" stroke-width="1"/><path d="M256.859,145.73c-10.045,16.3-28.972,28.211-51.469,31.269" transform="translate(-119.407 -60.042)" fill="none" stroke="#263238" stroke-linecap="round" stroke-linejoin="round" stroke-width="1"/><path d="M201.285,128.46a49.822,49.822,0,0,1-.885,9.316" transform="translate(-56.086 -69.585)" fill="none" stroke="#263238" stroke-linecap="round" stroke-linejoin="round" stroke-width="1"/><path d="M202.67,90.54c31.409,0,58.052,17.079,67.274,40.616" transform="translate(-128.269 -90.54)" fill="none" stroke="#263238" stroke-linecap="round" stroke-linejoin="round" stroke-width="1"/></g><g transform="translate(53.942 62.683)"><path d="M280.25,191.65s29.825,8.788,36.548,23.072,20.184,54.186,20.184,54.186,12.607,22.264,12.607,28.987-18.631,31.658-27.046,38.38-39.824-37.542-39.824-37.542Z" transform="translate(-128.344 -69.087)" fill="#fff" stroke="#263238" stroke-linecap="round" stroke-linejoin="round" stroke-width="1"/><path d="M317.079,320.938c-.388.342-1.553,15.278-1.553,15.278s-7.965,15.728-7.872,39.793S300,523.335,300,523.335H490.582s-13.244-92.411-32.03-139.175c0,0-.574-38.38-10.868-49.078,0,0,4.471-15.743-4.658-17.684S317.079,320.938,317.079,320.938Z" transform="translate(-300 0.171)" fill="#999"/><g transform="translate(0 317.154)" clip-path="url(#a)"><path d="M300,505.272H490.582s-13.244-92.411-32.03-139.175c0,0-.109-7.3-1.087-16.427-8.772,4.223-20.339,10.309-23.568,14.486-5.419,6.987,13.818,17.187,13.818,17.187a16.97,16.97,0,0,1-13.818,5.4c-8.524-.854-42.06-8.508-42.06-8.508s12.529,7.654,11.008,13.088-15.293,23.134-22.777,27.481,15.215-4.347,15.215-4.347-25.8,41.7-41.33,50.04-47.246-17.467-42.7-19.609,22.994-27.248,19.64-31.471c-1.925-2.438-13.337,3.975-25.913,7.173C302.717,461.178,300,505.272,300,505.272Z" transform="translate(-300 -298.919)" opacity="0.2"/></g><path d="M317.079,320.938c-.388.342-1.553,15.278-1.553,15.278s-7.965,15.728-7.872,39.793S300,523.335,300,523.335H490.582s-13.244-92.411-32.03-139.175c0,0-.574-38.38-10.868-49.078,0,0,4.471-15.743-4.658-17.684S317.079,320.938,317.079,320.938Z" transform="translate(-300 0.171)" fill="none" stroke="#263238" stroke-linecap="round" stroke-linejoin="round" stroke-width="1"/><path d="M454.667,319.89a45.641,45.641,0,0,1,0,13.414,94.942,94.942,0,0,1-47.494,15.868c-27.419,1.164-66.513-6.21-77.242-12.421V322Z" transform="translate(-311.051 1.778)" fill="#263238"/><path d="M364.216,325.07s2.329,12.312,0,16.97-23.382,5.931-23.382,5.931l.668-17.529Z" transform="translate(-238.067 4.641)" fill="#bfbfbf" stroke="#263238" stroke-linecap="round" stroke-linejoin="round" stroke-width="1"/><path d="M381.75,348.372a123.136,123.136,0,0,1,3.2-19.842l6.505.171s-3.493,12-1.553,19.671" transform="translate(-327.797 6.553)" fill="#999" stroke="#263238" stroke-linecap="round" stroke-linejoin="round" stroke-width="1"/><path d="M308.719,240.746l.807,35.71a289.38,289.38,0,0,0,20.851,25.835c.388-4.658.854-10.17,1.413-16.442,2.593-28.987-7.251-52.276-6.661-54Z" transform="translate(-155.183 -46.873)" fill="#ff725e" opacity="0.2"/><path d="M457.932,206.38a203.4,203.4,0,0,0-18.833-7.763c-.807-2.112,1.118-8.415-18.321-18.491s-47.51-3.773-47.51-3.773L362.4,189.8s-37.806,15.045-46.578,22.637-16.132,185.458-8.834,191.824c20.836,18.165,109.179,20.65,133.135-3.416,5.186-5.186,8.679-42.728,18.631-98.435,0,0,18.926-43.473,17.9-67.259" transform="translate(-292.347 -78.616)" fill="#fff" stroke="#263238" stroke-linecap="round" stroke-linejoin="round" stroke-width="1"/><path d="M351.093,186.13s-2.081,18.631,17.079,31.052c0,0,8.8-5.636,15.014-6.21s8.353,1.553,8.353,1.553,1.3-7.3-1.677-12.095-8.819-1.1-18.414,12.095C371.386,212.524,355.161,204.559,351.093,186.13Z" transform="translate(-280.466 -72.138)" fill="#ff725e" opacity="0.2"/><path d="M326.549,202.314s7.561.342,11.35,6.552,4.937,8.539,4.937,8.539,6.086-6.024,1.553-24.655a59,59,0,0,1-.714,16.116s-3.913-14.408-5.807-14.594S332.2,195.2,326.549,202.314Z" transform="translate(-196.705 -68.479)" fill="#ff725e" opacity="0.2"/><path d="M385.406,189.2a27.792,27.792,0,0,0-6.505,25.727l-13.616,22.062L356.9,217.453s-19.423-5.046-25.09-18.274a82.505,82.505,0,0,0,8.974-50.118C336.98,119.81,385.406,189.2,385.406,189.2Z" transform="translate(-244.212 -96.598)" fill="#f3aca9" stroke="#263238" stroke-linecap="round" stroke-linejoin="round" stroke-width="1"/><path d="M314.682,176.752c-6.009-44.839,7.421-62.725,42.681-60.21s35.834,41.92,27.419,58.642c-2.826,5.62-1.91,17.917-19.439,37.573-6.723,7.546-24.376,1.863-37.014-10.589" transform="translate(-219.321 -110.72)" fill="#f3aca9" stroke="#263238" stroke-linecap="round" stroke-linejoin="round" stroke-width="1"/><path d="M340.468,149.23s-3.462-6.133-12.918,0" transform="translate(-192.66 -94.035)" fill="none" stroke="#263238" stroke-linecap="round" stroke-linejoin="round" stroke-width="1"/><path d="M314.13,148.93s5.124-4.239,6.661,0" transform="translate(-152.147 -93.735)" fill="none" stroke="#263238" stroke-linecap="round" stroke-linejoin="round" stroke-width="1"/><path d="M330.769,155.062c-.4,1.553,0,2.981.994,3.229s2.049-.792,2.438-2.329,0-2.981-.994-3.229S331.158,153.525,330.769,155.062Z" transform="translate(-191.299 -90.613)" fill="#263238"/><path d="M318.505,155.062c-.4,1.553,0,2.981.994,3.229s2.049-.792,2.453-2.329,0-2.981-1.009-3.229S318.894,153.525,318.505,155.062Z" transform="translate(-160.016 -90.613)" fill="#263238"/><path d="M328.3,150.47c-3.9,5.356-.295,12.11.978,17.327s-6.614,4.891-8.819,3.105" transform="translate(-170.604 -91.843)" fill="none" stroke="#263238" stroke-linecap="round" stroke-linejoin="round" stroke-width="1"/><path d="M336.332,173.211s3.307-10.48-3.788-15.666-6.614,26.084-6.614,26.084l-6.769,3.788s-9.766-25.835-5.046-44.746,23.848-32.31,50.242-25.168c35.415,9.564,27.45,38.567,27.45,38.567s-1.553-8.2-3.229-7.763-7.3,5.822-34.763-3.633c0,0-3.105,2.686-2.406,9.316s-11.086,12.529-12.918,23.568Z" transform="translate(-221.906 -111.138)" fill="#999"/><g transform="translate(90.92 4.416)" clip-path="url(#b)"><path d="M336.332,173.211s3.307-10.48-3.788-15.666-6.614,26.084-6.614,26.084l-6.769,3.788s-9.766-25.835-5.046-44.746,23.848-32.31,50.242-25.168c35.415,9.564,27.45,38.567,27.45,38.567s-1.553-8.2-3.229-7.763-7.3,5.822-34.763-3.633c0,0-3.105,2.686-2.406,9.316s-11.086,12.529-12.918,23.568Z" transform="translate(-312.826 -115.554)" opacity="0.4"/></g><path d="M336.332,173.211s3.307-10.48-3.788-15.666-6.614,26.084-6.614,26.084l-6.769,3.788s-9.766-25.835-5.046-44.746,23.848-32.31,50.242-25.168c35.415,9.564,27.45,38.567,27.45,38.567s-1.553-8.2-3.229-7.763-7.3,5.822-34.763-3.633c0,0-3.105,2.686-2.406,9.316s-11.086,12.529-12.918,23.568Z" transform="translate(-221.906 -111.138)" fill="none" stroke="#263238" stroke-linecap="round" stroke-linejoin="round" stroke-width="1"/><path d="M373.57,172.734a14.346,14.346,0,0,1-7.313.745L364.7,175.2l-1.413-1.553s-8.663,1.133-12.918,0-8.664,1.553-10.868,1.553c0,0-9.44-11.334-8.508-17.172a50.3,50.3,0,0,1,1.553-7.561s-1.785,1.63-2.733,1.32a1.553,1.553,0,0,1-1.211-1.32s-9.176,18.631-8.974,33.722c0,0,10.5,17.436,24.407,18.429,15.6,1.1,23.708-4.968,23.708-4.968a33.815,33.815,0,0,0,1.351-15.2,14.656,14.656,0,0,1,3.7-2.764,23.676,23.676,0,0,0,.776-6.956Z" transform="translate(-213.481 -91.843)" fill="#263238"/><path d="M385.086,149.926a12.064,12.064,0,0,0,6.4-12.762c-1.459-9.036-8.182-12.188-13.011-14.9,0,0-9.844-8.415-28.149-9.455-22.047-1.258-43.473,10.294-38.442,27.326,0,0,31.052-13.244,38.442,6.21C350.323,146.293,371.687,158.683,385.086,149.926Z" transform="translate(-218.368 -112.71)" fill="#263238"/><path d="M364.911,149.985s-6.925-13.306-11.551-8.9-3.354,10.868-1.785,17.079,2.111,5.155,5.046,7.98,6.055,5.7,7.142,2.624a11.1,11.1,0,0,0,.559-5.527" transform="translate(-252.177 -97.522)" fill="#f3aca9" stroke="#263238" stroke-linecap="round" stroke-linejoin="round" stroke-width="1"/><path d="M324.91,171.933c12.421.311,16.489-1.553,16.489-1.553a1.4,1.4,0,0,0,1.382.606l-2.049,4.239s-2.049,1.273-7.359,1.273C328.885,176.5,324.91,171.933,324.91,171.933Z" transform="translate(-190.874 -80.841)" fill="#fff"/><path d="M377.009,141.585s5.046-10.092-8.182-16.225-34.654-3.788-39.855,3.105" transform="translate(-232.353 -107.676)" fill="none" stroke="#fff" stroke-linecap="round" stroke-linejoin="round" stroke-width="1" opacity="0.2"/><path d="M345.7,147.658s14.532-.621,3.742-14.8-33.645-18.631-33.645-18.631" transform="translate(-187.361 -111.87)" fill="none" stroke="#fff" stroke-linecap="round" stroke-linejoin="round" stroke-width="1" opacity="0.2"/><path d="M350.14,184.33a43.612,43.612,0,0,0,20.913,29.189s10.03-14.936,15.309-14.594c2.577.155,6.505,8.042,6.505,8.042" transform="translate(-280.133 -73.132)" fill="none" stroke="#263238" stroke-linecap="round" stroke-linejoin="round" stroke-width="1"/><path d="M345.926,190c1.8,7.142.543,21.333.543,21.333s-4.363-14.16-6.1-15.526c-3.105-2.515-12.762,9.766-12.762,9.766" transform="translate(-199.174 -69.999)" fill="none" stroke="#263238" stroke-linecap="round" stroke-linejoin="round" stroke-width="1"/><path d="M341.956,203.13l7.359,4.829S341.025,217.2,342,225.6s-2,26.891-2,26.891" transform="translate(-220.838 -62.743)" fill="none" stroke="#263238" stroke-linecap="round" stroke-linejoin="round" stroke-width="1"/><path d="M260.241,284.578a56.469,56.469,0,0,0-5.776,32s10.868,15.06,19.206,17.311c20.277,5.465,32.5-39.607,56.856-100.127,1.553-3.882-12.281-24.391-12.281-24.391l-40.228,62.585a23.553,23.553,0,0,0-17.777,12.623Z" transform="translate(-68.805 -59.295)" fill="#f3aca9" stroke="#263238" stroke-linecap="round" stroke-linejoin="round" stroke-width="1"/><path d="M233.41,219.154l10.325-13.973s15.526-8.912,17.249-3.587c2.531,7.98,15.262,10.34,15.262,10.34-1.118,4.083-13.554,22.28-20.6,26.394s-7.763,5.325-10.666,6.21c-7.375,1.972-9.129-3.323-9.129-3.323" transform="translate(17.723 -64.53)" fill="#f3aca9" stroke="#263238" stroke-linecap="round" stroke-linejoin="round" stroke-width="1"/><path d="M262.022,278.192s56.716-52.7-13.725-71.73-51.919,50.677-51.919,50.677l4.658.807s-18.46-62.384,44.87-46.112S259.4,275.009,259.4,275.009Z" transform="translate(71.275 -62.722)" fill="#757575" stroke="#263238" stroke-linecap="round" stroke-linejoin="round" stroke-width="1"/><path d="M245.081,230.377c11.908-5.807,7.763-16.442,19.345-23.149,3.105-1.8,13.182-.7,16.364-2.934,4.782-3.338,3.105-5.636,2.981-6.04-.155-.916-3.509,2.065-14.936-1.164-4.565-1.289-17.079,2.624-20.991,6.04-9.191,7.98-17.187,17.389-16.318,24.748.5,4.239,5.217,5.946,5.217,5.946" transform="translate(12.837 -66.22)" fill="#f3aca9" stroke="#263238" stroke-linecap="round" stroke-linejoin="round" stroke-width="1"/><path d="M262.431,207.7s-9.983-2.438-13.166-2.407c-4.378,0-5.76.652-6.8,2.515a4.86,4.86,0,0,0,.186,4.161,7.344,7.344,0,0,0-3.587,3.711,6.893,6.893,0,0,0,1.009,5.108,10.4,10.4,0,0,0-4.549,2.764,3.431,3.431,0,0,0-.248,4.658s-5.62,3.85-2.5,6.21,11.645,5.76,15.526,5.388S276.513,209.855,262.431,207.7Z" transform="translate(29.645 -61.55)" fill="#f3aca9" stroke="#263238" stroke-linecap="round" stroke-linejoin="round" stroke-width="1"/><path d="M234.37,209.59s15.868,4.86,20.184,4.751" transform="translate(37.925 -59.174)" fill="none" stroke="#263238" stroke-linecap="round" stroke-linejoin="round" stroke-width="1"/><path d="M238.51,215.27s13.508,4.86,16.287,5.4" transform="translate(31.254 -56.035)" fill="none" stroke="#263238" stroke-linecap="round" stroke-linejoin="round" stroke-width="1"/><path d="M242.54,220a124.521,124.521,0,0,0,14.874,5.155" transform="translate(22.38 -53.421)" fill="none" stroke="#263238" stroke-linecap="round" stroke-linejoin="round" stroke-width="1"/><path d="M303.428,255.24s-17.389-29.748-60.551-24.422L207.4,304.659s22.264,42.231,85.253,32.232Z" transform="translate(30.924 -47.796)" fill="#757575" stroke="#263238" stroke-linecap="round" stroke-linejoin="round" stroke-width="1"/><path d="M177.579,288.75s37.961-28.164,63.657.528l-11.676,8.741s-11.971-25.168-52.4,5.9" transform="translate(140.067 -22.261)" fill="#757575" stroke="#263238" stroke-linecap="round" stroke-linejoin="round" stroke-width="1"/><path d="M263.357,254.6s-40.942,4.037-53.627-22.715" transform="translate(67.378 -46.851)" fill="#757575" stroke="#263238" stroke-linecap="round" stroke-linejoin="round" stroke-width="1"/><path d="M204.859,288.462s-16.116-11.319-30.4-2.981a22.218,22.218,0,0,0-10.868,23.289S185.032,310.446,204.859,288.462Z" transform="translate(198.072 -18.93)" fill="#757575" stroke="#263238" stroke-linecap="round" stroke-linejoin="round" stroke-width="1"/><path d="M201.753,286.35s-25.059,6.692-33.443,20.277" transform="translate(193.291 -16.756)" fill="none" stroke="#263238" stroke-linecap="round" stroke-linejoin="round" stroke-width="1"/><path d="M214.73,238.556l2.9-12.095s16.163-.435,21.736,8.865l-7.2,9.533" transform="translate(83.602 -49.852)" fill="#757575" stroke="#263238" stroke-linecap="round" stroke-linejoin="round" stroke-width="1"/><path d="M223.32,235.88a26.393,26.393,0,0,0,10.371,3.183" transform="translate(75.944 -44.646)" fill="none" stroke="#263238" stroke-linecap="round" stroke-linejoin="round" stroke-width="1"/><path d="M222.067,285.9s-3.649,4.953.932,11.256" transform="translate(90.72 -17.005)" fill="none" stroke="#263238" stroke-linecap="round" stroke-linejoin="round" stroke-width="1"/><path d="M323.35,259.774s15.014,51.764,48.131,77.63c15.122,11.815,84.337-7.251,84.337-7.251l-4.487-26.829-22.668-10.744s-40.119-62.8-61.856-69.029S323.35,259.774,323.35,259.774Z" transform="translate(-301.489 -51.803)" fill="#ff725e" opacity="0.2"/><path d="M387.817,200.215c15.976.45,57.974,77.413,57.974,77.413,11.38,4.316,5.962,14.284,5.962,14.284s-26.689,33.847-31.735,36.735c-12.421,7.142-16.908-5.357-16.908-5.357s-52.447-47.649-48.876-86.449,15.526-37.93,15.526-37.93" transform="translate(-346.393 -65.076)" fill="#fff" stroke="#263238" stroke-linecap="round" stroke-linejoin="round" stroke-width="1"/><path d="M263.046,256.87l15.992,17.28c33.986-3.307,95.951,22.435,113.868,13.073,10.418-5.45,35.43.155,39.157,2.034s11.6,11.629,8.679,12.887-9.316-4.565-12.949-4.037a57.447,57.447,0,0,1-10.045-.093s15.759,14.952,19.283,15.588,21.426,8.275,14.936,9.611c-9.083,1.863-12.545.932-12.545.932s-8.2,5.822-14.3,6.443c-3.105.326-20.339-2.779-20.339-2.779l-15.743-15.014s-104.77,5.45-123.2-2.3c-24.034-10.092-31.735-18.429-31.735-18.429S244.275,262.568,263.046,256.87Z" transform="translate(-160.481 -33.047)" fill="#f3aca9" stroke="#263238" stroke-linecap="round" stroke-linejoin="round" stroke-width="1"/><path d="M365.491,338.51c.357-.078,8.1,45.786-2.857,55.49,0,0-6.335,21.907-5.155,36.967s-7.049,45.709-7.049,45.709l-5.5,34.763" transform="translate(-247.664 12.068)" fill="none" stroke="#263238" stroke-linecap="round" stroke-linejoin="round" stroke-width="1"/><path d="M346.29,339.38s3.882,22.7,2.329,30.85,1.817,16.52,6.536,16.8" transform="translate(-236.444 12.549)" fill="none" stroke="#263238" stroke-linecap="round" stroke-linejoin="round" stroke-width="1"/><path d="M417.261,334.92s-7.049,37.806-18.631,40.927" transform="translate(-379.813 10.084)" fill="none" stroke="#263238" stroke-linecap="round" stroke-linejoin="round" stroke-width="1"/><path d="M419.768,331.56a261,261,0,0,0-4.409,57.446c.916,33.288-6.614,100.05-7.313,108.2a138.192,138.192,0,0,0,0,18.072" transform="translate(-396.479 8.227)" fill="none" stroke="#263238" stroke-linecap="round" stroke-linejoin="round" stroke-width="1"/><path d="M337.75,366.67c2.981,1.289,39.467,12.157,46.454,20.7" transform="translate(-252.233 27.629)" fill="none" stroke="#263238" stroke-linecap="round" stroke-linejoin="round" stroke-width="1"/><path d="M389.433,380.56s-25.2,30.571-37.433,33.676" transform="translate(-279.587 35.305)" fill="none" stroke="#263238" stroke-linecap="round" stroke-linejoin="round" stroke-width="1"/><path d="M315.61,382.5s38.706,38.039,45.522,33.723" transform="translate(-194.787 36.377)" fill="none" stroke="#263238" stroke-linecap="round" stroke-linejoin="round" stroke-width="1"/><path d="M343.95,411s10.682,42.231,9.968,46.92,3.633,13.461,3.633,13.461" transform="translate(-235.206 52.126)" fill="none" stroke="#263238" stroke-linecap="round" stroke-linejoin="round" stroke-width="1"/><path d="M348.845,304.37s-2.344,12.172,0,19.578-.217,18.631-3.431,19.221" transform="translate(-229.683 -6.798)" fill="none" stroke="#263238" stroke-linecap="round" stroke-linejoin="round" stroke-width="1"/><path d="M300.421,249.68S288,263.095,288,273.512" transform="translate(-91.208 -37.02)" fill="none" stroke="#263238" stroke-linecap="round" stroke-linejoin="round" stroke-width="1"/><path d="M185.16,304.37s1.025,3.307,2.469,8.974" transform="translate(181.254 -6.798)" fill="none" stroke="#263238" stroke-linecap="round" stroke-linejoin="round" stroke-width="1"/><path d="M181.91,316.09c.916,4.145,1.894,8.85,2.826,13.973" transform="translate(189.193 -0.322)" fill="none" stroke="#263238" stroke-linecap="round" stroke-linejoin="round" stroke-width="1" stroke-dasharray="6.114 6.114"/><path d="M180.5,328.1c.481,2.966.963,6.04,1.382,9.222" transform="translate(194.236 6.315)" fill="none" stroke="#263238" stroke-linecap="round" stroke-linejoin="round" stroke-width="1"/><path d="M170.13,299.16s1.91,2.965,4.658,8.042" transform="translate(217.43 -9.677)" fill="none" stroke="#263238" stroke-linecap="round" stroke-linejoin="round" stroke-width="1"/><path d="M161.35,312.07a193.143,193.143,0,0,1,7.561,18.631" transform="translate(236.939 -2.543)" fill="none" stroke="#263238" stroke-linecap="round" stroke-linejoin="round" stroke-width="1" stroke-dasharray="8.659 8.659"/><path d="M158.48,328.23q1.3,4.425,2.36,9.021" transform="translate(249.466 6.387)" fill="none" stroke="#263238" stroke-linecap="round" stroke-linejoin="round" stroke-width="1"/><path d="M158.01,290.92a34.7,34.7,0,0,1,8.1,4.534" transform="translate(244.921 -14.231)" fill="none" stroke="#263238" stroke-linecap="round" stroke-linejoin="round" stroke-width="1"/><path d="M145.41,298a98.083,98.083,0,0,1,11.179,11.241" transform="translate(274.009 -10.318)" fill="none" stroke="#263238" stroke-linecap="round" stroke-linejoin="round" stroke-width="1" stroke-dasharray="6.815 6.815"/><path d="M139.99,307.91a82.132,82.132,0,0,1,5.124,7.763" transform="translate(293.9 -4.842)" fill="none" stroke="#263238" stroke-linecap="round" stroke-linejoin="round" stroke-width="1"/><path d="M390.589,249.61c-11.676,1.77-28.754,23.118-31.859,31.269" transform="translate(-291.192 -37.059)" fill="none" stroke="#263238" stroke-linecap="round" stroke-linejoin="round" stroke-width="1"/><path d="M379.25,231.89s28.024,17.079,55.971,18.8" transform="translate(-367.683 -46.851)" fill="none" stroke="#263238" stroke-linecap="round" stroke-linejoin="round" stroke-width="1"/><path d="M318.44,244.115s-14.408-2.919-21.736,8.819a78.049,78.049,0,0,0-9.7,23.786" transform="translate(-107.675 -40.273)" fill="none" stroke="#263238" stroke-linecap="round" stroke-linejoin="round" stroke-width="1"/><path d="M315.138,227.46S308.167,242.753,300,249.1" transform="translate(-124.556 -49.299)" fill="none" stroke="#263238" stroke-linecap="round" stroke-linejoin="round" stroke-width="1"/><path d="M346.7,256a128.17,128.17,0,0,0-.59,18.631" transform="translate(-227.536 -33.527)" fill="none" stroke="#263238" stroke-linecap="round" stroke-linejoin="round" stroke-width="1"/><path d="M409.518,302s-30.664,34.514-78.018,25.214" transform="translate(-267.843 -8.108)" fill="none" stroke="#263238" stroke-linecap="round" stroke-linejoin="round" stroke-width="1"/><path d="M345.431,209.647a1.739,1.739,0,1,0,1.739-1.817,1.785,1.785,0,0,0-1.739,1.817Z" transform="translate(-228.862 -60.146)" fill="#263238"/><path d="M346.822,239.1a1.739,1.739,0,1,0,1.739-1.816,1.77,1.77,0,0,0-1.739,1.816Z" transform="translate(-232.411 -43.872)" fill="#263238"/></g><g transform="translate(38.804 586.015)"><line x1="615.606" y1="0.174" transform="translate(0 0)" fill="none" stroke="#263238" stroke-linecap="round" stroke-linejoin="round" stroke-width="1"/></g><g transform="translate(59.035 289.447)"><path d="M149.378,454.341s-25.075-8.8-8.741-58.347-4.565-48.457-13.88-73.516,4.44-42.029,4.44-42.029" transform="translate(310.114 -246.781)" fill="none" stroke="#263238" stroke-linecap="round" stroke-linejoin="round" stroke-width="3"/><path d="M152.814,384.56h72.972s-9.843,74.152-12.685,95.609c-.512,3.9-3.618,5.822-7.375,5.822H104.56c-3.757,0-6.862-1.925-7.375-5.822C94.343,458.712,84.5,384.56,84.5,384.56Z" transform="translate(294.288 -189.25)" fill="#263238"/><path d="M230.672,380.571H83.982a3.462,3.462,0,0,0-3.462,3.462v5.481a3.462,3.462,0,0,0,3.462,3.462h146.69a3.478,3.478,0,0,0,3.478-3.478v-5.481a3.478,3.478,0,0,0-3.478-3.478Z" transform="translate(292.104 -191.471)" fill="#263238"/><line x1="74.012" transform="translate(438.284 201.521)" fill="none" stroke="#fff" stroke-linecap="round" stroke-linejoin="round" stroke-width="1"/><line x1="5.698" transform="translate(423.27 201.521)" fill="none" stroke="#fff" stroke-linecap="round" stroke-linejoin="round" stroke-width="1"/><line x2="10.356" transform="translate(389.113 201.521)" fill="none" stroke="#fff" stroke-linecap="round" stroke-linejoin="round" stroke-width="1"/><line x1="28.987" transform="translate(477.611 225.835)" fill="none" stroke="#fff" stroke-linecap="round" stroke-linejoin="round" stroke-width="1"/><line x1="7.763" transform="translate(453.297 225.835)" fill="none" stroke="#fff" stroke-linecap="round" stroke-linejoin="round" stroke-width="1"/><line x2="27.947" transform="translate(391.193 225.835)" fill="none" stroke="#fff" stroke-linecap="round" stroke-linejoin="round" stroke-width="1"/><line x2="5.17" transform="translate(394.298 246.018)" fill="none" stroke="#fff" stroke-linecap="round" stroke-linejoin="round" stroke-width="1"/><line x2="10.868" transform="translate(477.611 246.018)" fill="none" stroke="#fff" stroke-linecap="round" stroke-linejoin="round" stroke-width="1"/><line x1="17.855" transform="translate(408.272 265.69)" fill="none" stroke="#fff" stroke-linecap="round" stroke-linejoin="round" stroke-width="1"/><line x2="27.947" transform="translate(467.783 265.69)" fill="none" stroke="#fff" stroke-linecap="round" stroke-linejoin="round" stroke-width="1"/><line x1="9.316" transform="translate(492.112 283.281)" fill="none" stroke="#fff" stroke-linecap="round" stroke-linejoin="round" stroke-width="1"/><line x1="54.341" transform="translate(423.27 283.281)" fill="none" stroke="#fff" stroke-linecap="round" stroke-linejoin="round" stroke-width="1"/><line x2="8.291" transform="translate(396.876 283.281)" fill="none" stroke="#fff" stroke-linecap="round" stroke-linejoin="round" stroke-width="1"/><path d="M112.83,424.7a26.64,26.64,0,1,0,0-.005Z" transform="translate(309.943 -181.789)" fill="#ff725e" stroke="#263238" stroke-linecap="round" stroke-linejoin="round" stroke-width="1"/><path d="M130.611,407.956V406.17h4.161v1.786c3.6.559,5.434,2.608,5.434,5.869v.761h-4.8v-.916c0-1.723-.916-2.375-2.531-2.375s-2.531.652-2.531,2.375.916,2.9,4.332,4.937c4.146,2.469,5.574,4.347,5.574,7.1,0,3.26-1.879,5.357-5.481,5.9v1.754h-4.161v-1.832c-3.633-.543-5.481-2.639-5.481-5.9v-1.646h4.8v1.894c0,1.708,1.009,2.329,2.624,2.329s2.639-.621,2.639-2.329-.932-2.95-4.347-4.953c-4.146-2.422-5.574-4.347-5.574-7.1C125.27,410.564,127.071,408.546,130.611,407.956Z" transform="translate(316.741 -177.308)" fill="#fff" stroke="#263238" stroke-linecap="round" stroke-linejoin="round" stroke-width="1"/><path d="M115.75,423.078A22.125,22.125,0,1,0,137.875,401a22.125,22.125,0,0,0-22.125,22.078Z" transform="translate(311.557 -180.165)" fill="none" stroke="#263238" stroke-linecap="round" stroke-linejoin="round" stroke-width="1"/><path d="M180.322,368.293S175,340.7,152.7,338.545,127.86,318.92,127.86,318.92" transform="translate(272.432 -225.522)" fill="none" stroke="#263238" stroke-linecap="round" stroke-linejoin="round" stroke-width="3"/><path d="M100.447,336.488s5.419-2.608,25.509-14.843,19.314-31.735,19.314-31.735" transform="translate(350.04 -241.553)" fill="none" stroke="#263238" stroke-linecap="round" stroke-linejoin="round" stroke-width="3"/><path d="M103,378.706s39.327-1.553,45.165-33.816" transform="translate(343.186 -211.171)" fill="none" stroke="#263238" stroke-linecap="round" stroke-linejoin="round" stroke-width="3"/><path d="M160.675,278.646A17.731,17.731,0,1,1,145.227,258.9a17.731,17.731,0,0,1,15.448,19.749Z" transform="translate(295.854 -258.764)" fill="#52b487"/><path d="M125.476,278.646A17.731,17.731,0,1,0,140.924,258.9a17.731,17.731,0,0,0-15.448,19.749Z" transform="translate(295.854 -258.764)" fill="none" stroke="#263238" stroke-linecap="round" stroke-linejoin="round" stroke-width="1"/><path d="M127.658,277.015a14.315,14.315,0,1,0,12.421-15.945,14.315,14.315,0,0,0-12.421,15.945Z" transform="translate(297.056 -257.553)" fill="none" stroke="#263238" stroke-linecap="round" stroke-linejoin="round" stroke-width="1"/><path d="M136.105,266.39a3.105,3.105,0,0,1,2.112-1.04l.14-1.18,2.049.248-.155,1.18a3.105,3.105,0,0,1,1.848,1.553,4.658,4.658,0,0,1,.357,2.7v.5l-2.36-.279.078-.668a1.739,1.739,0,0,0-.171-1.227,1.149,1.149,0,0,0-.885-.481,1.1,1.1,0,0,0-.963.264,1.754,1.754,0,0,0-.466,1.149,2.718,2.718,0,0,0,.124,1.289,4.659,4.659,0,0,0,.574,1.056c.233.31.59.7,1.025,1.18a11.943,11.943,0,0,1,1.273,1.444,5.076,5.076,0,0,1,.761,1.553,4.828,4.828,0,0,1,.14,2.034,4.658,4.658,0,0,1-1.009,2.546,3.1,3.1,0,0,1-2.158,1.025l-.14,1.149-2.049-.248.155-1.149a3.105,3.105,0,0,1-1.863-1.553,4.518,4.518,0,0,1-.357-2.7l.124-1.087,2.36.279-.155,1.242c-.124,1.025.248,1.553,1.1,1.708s1.351-.357,1.475-1.382a2.811,2.811,0,0,0-.124-1.3,4.068,4.068,0,0,0-.574-1.056,13.051,13.051,0,0,0-1.025-1.164,13.442,13.442,0,0,1-1.273-1.46,5.062,5.062,0,0,1-.745-1.553,5.248,5.248,0,0,1,.838-4.534Z" transform="translate(300.554 -255.777)" fill="#fff"/><path d="M89.585,286.1a17.731,17.731,0,1,0,19.966-15.184A17.731,17.731,0,0,0,89.585,286.1Z" transform="translate(387.544 -252.139)" fill="#52b487"/><path d="M89.585,286.1a17.731,17.731,0,1,0,19.966-15.184A17.731,17.731,0,0,0,89.585,286.1Z" transform="translate(387.544 -252.139)" fill="none" stroke="#263238" stroke-linecap="round" stroke-linejoin="round" stroke-width="1"/><path d="M91.762,285.36a14.315,14.315,0,1,0,5.513-9.514A14.315,14.315,0,0,0,91.762,285.36Z" transform="translate(388.721 -250.946)" fill="none" stroke="#263238" stroke-linecap="round" stroke-linejoin="round" stroke-width="1"/><path d="M98.493,279.142a3.105,3.105,0,0,1,1.785-1.553l-.171-1.18,2.034-.279.171,1.18a3.105,3.105,0,0,1,2.158.994,4.658,4.658,0,0,1,1.04,2.515v.5l-2.36.311-.078-.652a1.8,1.8,0,0,0-.481-1.133,1.335,1.335,0,0,0-1.848.248,1.754,1.754,0,0,0-.155,1.227,2.592,2.592,0,0,0,.45,1.211,4.066,4.066,0,0,0,.823.885c.311.233.73.528,1.289.87a13.411,13.411,0,0,1,1.553,1.087,4.814,4.814,0,0,1,1.118,1.289,4.565,4.565,0,0,1,.652,1.925,4.472,4.472,0,0,1-.326,2.717,3.105,3.105,0,0,1-1.832,1.553l.155,1.164-2.034.264-.155-1.149a3.105,3.105,0,0,1-2.189-.994,4.5,4.5,0,0,1-1.025-2.531l-.155-1.071,2.36-.326.171,1.242c.124,1.025.637,1.553,1.553,1.366s1.211-.7,1.071-1.723a2.593,2.593,0,0,0-.45-1.211,4.067,4.067,0,0,0-.823-.885c-.311-.233-.73-.528-1.289-.869a13.51,13.51,0,0,1-1.553-1.071,5.155,5.155,0,0,1-1.118-1.3,5.4,5.4,0,0,1-.342-4.658Z" transform="translate(392.374 -249.168)" fill="#fff"/><path d="M88.752,341.072a17.715,17.715,0,1,0,6.166-12.093A17.731,17.731,0,0,0,88.752,341.072Z" transform="translate(389.403 -222.304)" fill="#52b487"/><path d="M88.752,341.072a17.715,17.715,0,1,0,6.166-12.093A17.731,17.731,0,0,0,88.752,341.072Z" transform="translate(389.403 -222.304)" fill="none" stroke="#263238" stroke-linecap="round" stroke-linejoin="round" stroke-width="1"/><path d="M90.95,340.1a14.315,14.315,0,1,0,15.417-13.088A14.315,14.315,0,0,0,90.95,340.1Z" transform="translate(390.604 -221.074)" fill="none" stroke="#263238" stroke-linecap="round" stroke-linejoin="round" stroke-width="1"/><path d="M98.016,332.995a3.106,3.106,0,0,1,1.863-1.444l-.093-1.18,2.049-.171.093,1.18a3.106,3.106,0,0,1,2.1,1.1,4.658,4.658,0,0,1,.9,2.577v.5l-2.36.186v-.652a1.754,1.754,0,0,0-.4-1.164,1.335,1.335,0,0,0-1.863.14,1.786,1.786,0,0,0-.233,1.227,2.8,2.8,0,0,0,.388,1.227,4.13,4.13,0,0,0,.776.932,12.43,12.43,0,0,0,1.242.947,15.079,15.079,0,0,1,1.553,1.164,5.2,5.2,0,0,1,1.04,1.351,4.8,4.8,0,0,1,.543,1.972,4.533,4.533,0,0,1-.481,2.686,3.105,3.105,0,0,1-1.91,1.428l.093,1.164-2.049.171-.093-1.164a3.105,3.105,0,0,1-2.127-1.118,4.658,4.658,0,0,1-.885-2.577l-.093-1.087,2.376-.2.093,1.258c0,1.04.559,1.553,1.413,1.444s1.258-.621,1.18-1.646a2.857,2.857,0,0,0-.388-1.242,4.129,4.129,0,0,0-.776-.932c-.3-.248-.7-.559-1.242-.932a13.121,13.121,0,0,1-1.553-1.18,5.233,5.233,0,0,1-1.056-1.351,4.906,4.906,0,0,1-.543-1.956,4.409,4.409,0,0,1,.45-2.655Z" transform="translate(394.212 -219.289)" fill="#fff"/><path d="M157.93,324.6a17.731,17.731,0,1,0,8.632-23.537A17.731,17.731,0,0,0,157.93,324.6Z" transform="translate(216.867 -236.299)" fill="#52b487"/><path d="M157.93,324.6a17.731,17.731,0,1,0,8.632-23.537A17.731,17.731,0,0,0,157.93,324.6Z" transform="translate(216.867 -236.299)" fill="none" stroke="#263238" stroke-linecap="round" stroke-linejoin="round" stroke-width="1"/><path d="M159.832,321.962A14.3,14.3,0,1,0,159.369,311a14.315,14.315,0,0,0,.463,10.957Z" transform="translate(218.056 -235.085)" fill="none" stroke="#263238" stroke-linecap="round" stroke-linejoin="round" stroke-width="1"/><path d="M169.793,306.563a3.106,3.106,0,0,1,2.329-.342l.5-1.071,1.863.869-.5,1.071a3.105,3.105,0,0,1,1.289,1.987,4.658,4.658,0,0,1-.481,2.686l-.217.45-2.143-.994.264-.606a1.8,1.8,0,0,0,.217-1.227,1.118,1.118,0,0,0-.683-.73,1.165,1.165,0,0,0-1.009,0,1.847,1.847,0,0,0-.792.947,2.748,2.748,0,0,0-.279,1.273,4.177,4.177,0,0,0,.217,1.18c.14.373.342.854.621,1.428a14.745,14.745,0,0,1,.761,1.77,5.341,5.341,0,0,1,.248,1.708,4.891,4.891,0,0,1-.481,1.972,4.658,4.658,0,0,1-1.754,2.112,3.106,3.106,0,0,1-2.36.311l-.5,1.056-1.863-.869.435-1.1a3.105,3.105,0,0,1-1.3-2,4.658,4.658,0,0,1,.481-2.7l.466-.994,2.158,1.009-.528,1.133c-.435.932-.264,1.553.528,1.956s1.4,0,1.832-.869a2.826,2.826,0,0,0,.264-1.258,3.787,3.787,0,0,0-.217-1.2,12.413,12.413,0,0,0-.621-1.428,12.874,12.874,0,0,1-.761-1.77,4.86,4.86,0,0,1-.233-1.692,4.533,4.533,0,0,1,.481-1.972A4.658,4.658,0,0,1,169.793,306.563Z" transform="translate(221.122 -233.132)" fill="#fff"/><path d="M184.4,331.6c0,1.1-16.535-10.868-32.6-3.245,0,0,16.8,15.262,33.055,5.776s13.973-32.76,13.973-32.76S183.1,312.347,184.4,331.6Z" transform="translate(216.648 -235.22)" fill="#fff" stroke="#263238" stroke-linecap="round" stroke-linejoin="round" stroke-width="1"/><path d="M144.13,289.148c-.528.963-7.98-18.119-25.68-20.448,0,0,5.838,21.938,24.64,22.777s29.5-19.951,29.5-19.951S153.492,272.271,144.13,289.148Z" transform="translate(294.775 -253.274)" fill="#fff" stroke="#263238" stroke-linecap="round" stroke-linejoin="round" stroke-width="1"/><path d="M104.385,303.392c-.683.869-5.03-19.159-22.125-24.252,0,0,2.3,22.59,20.712,26.394s32.263-15.045,32.263-15.045S116.293,288.238,104.385,303.392Z" transform="translate(388.318 -247.505)" fill="#fff" stroke="#263238" stroke-linecap="round" stroke-linejoin="round" stroke-width="1"/><path d="M101.129,359.053c-.823.73-1.677-19.749-17.653-27.683,0,0-1.553,22.652,15.9,29.5s34.359-9.316,34.359-9.316S115.444,346.1,101.129,359.053Z" transform="translate(387.987 -218.642)" fill="#fff" stroke="#263238" stroke-linecap="round" stroke-linejoin="round" stroke-width="1"/><path d="M272.814,384.56h72.972s-9.843,74.152-12.685,95.609c-.512,3.9-3.618,5.822-7.375,5.822H224.56c-3.757,0-6.862-1.925-7.375-5.822C214.328,458.712,204.5,384.56,204.5,384.56Z" transform="translate(-12.024 -189.25)" fill="#263238"/><path d="M350.688,380.56H204a3.478,3.478,0,0,0-3.478,3.478v5.481a3.462,3.462,0,0,0,3.462,3.462H350.688a3.478,3.478,0,0,0,3.478-3.478v-5.481a3.462,3.462,0,0,0-3.478-3.462Z" transform="translate(-14.223 -191.46)" fill="#263238"/><line x1="74.012" transform="translate(251.972 201.521)" fill="none" stroke="#fff" stroke-linecap="round" stroke-linejoin="round" stroke-width="1"/><line x1="5.698" transform="translate(236.958 201.521)" fill="none" stroke="#fff" stroke-linecap="round" stroke-linejoin="round" stroke-width="1"/><line x2="10.356" transform="translate(202.801 201.521)" fill="none" stroke="#fff" stroke-linecap="round" stroke-linejoin="round" stroke-width="1"/><line x1="28.987" transform="translate(291.299 225.835)" fill="none" stroke="#fff" stroke-linecap="round" stroke-linejoin="round" stroke-width="1"/><line x1="7.763" transform="translate(266.985 225.835)" fill="none" stroke="#fff" stroke-linecap="round" stroke-linejoin="round" stroke-width="1"/><line x2="27.947" transform="translate(204.881 225.835)" fill="none" stroke="#fff" stroke-linecap="round" stroke-linejoin="round" stroke-width="1"/><line x2="5.17" transform="translate(207.986 246.018)" fill="none" stroke="#fff" stroke-linecap="round" stroke-linejoin="round" stroke-width="1"/><line x2="10.868" transform="translate(291.299 246.018)" fill="none" stroke="#fff" stroke-linecap="round" stroke-linejoin="round" stroke-width="1"/><line x1="17.855" transform="translate(221.96 265.69)" fill="none" stroke="#fff" stroke-linecap="round" stroke-linejoin="round" stroke-width="1"/><line x2="27.947" transform="translate(281.471 265.69)" fill="none" stroke="#fff" stroke-linecap="round" stroke-linejoin="round" stroke-width="1"/><line x1="9.316" transform="translate(305.8 283.281)" fill="none" stroke="#fff" stroke-linecap="round" stroke-linejoin="round" stroke-width="1"/><line x1="54.341" transform="translate(236.958 283.281)" fill="none" stroke="#fff" stroke-linecap="round" stroke-linejoin="round" stroke-width="1"/><line x2="8.291" transform="translate(210.564 283.281)" fill="none" stroke="#fff" stroke-linecap="round" stroke-linejoin="round" stroke-width="1"/><path d="M232.83,424.7a26.8,26.8,0,1,0,0-.005Z" transform="translate(3.631 -181.789)" fill="#ff725e" stroke="#263238" stroke-linecap="round" stroke-linejoin="round" stroke-width="1"/><path d="M235.75,423.078A22.125,22.125,0,1,0,257.875,401a22.125,22.125,0,0,0-22.125,22.078Z" transform="translate(5.245 -180.165)" fill="none" stroke="#263238" stroke-linecap="round" stroke-linejoin="round" stroke-width="1"/><path d="M254.316,407.17l6.521,6.459v-4.394H262.9v6.443l3.54,3.509h-3.105v10.666H245.3V419.187H242.19Z" transform="translate(8.803 -176.755)" fill="#fff" stroke="#263238" stroke-linecap="round" stroke-linejoin="round" stroke-width="1"/><path d="M228.559,416.953s-9.316-17.855,13.011-33.381,27.17-31.611,23.584-43.752" transform="translate(33.179 -213.973)" fill="none" stroke="#263238" stroke-linecap="round" stroke-linejoin="round" stroke-width="3"/><path d="M289.709,392.211s2.608-11.629-17.808-19.827-23.46-32.6-23.46-32.6" transform="translate(-24.276 -213.995)" fill="none" stroke="#263238" stroke-linecap="round" stroke-linejoin="round" stroke-width="3"/><path d="M222.64,327.984c-3.276,0-2.7,20.556,12.421,24.438,0,0,7.359-2.313,8.524-12.219a14.719,14.719,0,0,0-5.76-14.253,47.227,47.227,0,0,1-3.835,9.316S228.851,328.015,222.64,327.984Z" transform="translate(64.327 -221.638)" fill="#52b487" stroke="#263238" stroke-linecap="round" stroke-linejoin="round" stroke-width="1"/><path d="M225.871,331.94s4.177,3.478,1.149,9.8" transform="translate(72.461 -218.327)" fill="#fff" stroke="#263238" stroke-linecap="round" stroke-linejoin="round" stroke-width="1"/><path d="M283.839,352.908s10.868-9.89,7.608-17.172a23.8,23.8,0,0,0-10.294-10.666s-2.329,4.518-3.68,6.676L271.9,328.47S260.5,350.579,283.839,352.908Z" transform="translate(-58.619 -222.124)" fill="#52b487" stroke="#263238" stroke-linecap="round" stroke-linejoin="round" stroke-width="1"/><path d="M279.956,329.37s-6.8,10.868,1.739,16.225" transform="translate(-61.102 -219.748)" fill="#fff" stroke="#263238" stroke-linecap="round" stroke-linejoin="round" stroke-width="1"/><path d="M249.776,384.517s10.511-26.394,1.8-55.987" transform="translate(8.437 -220.212)" fill="none" stroke="#263238" stroke-linecap="round" stroke-linejoin="round" stroke-width="3"/><path d="M260.358,338.3s-13.973-4.487-13.973-12.421a23.771,23.771,0,0,1,4.922-13.973s4.006,3.105,6.133,4.549l3.711-5.294S280.62,326.438,260.358,338.3Z" transform="translate(-0.841 -229.811)" fill="#52b487" stroke="#263238" stroke-linecap="round" stroke-linejoin="round" stroke-width="1"/><path d="M249.9,314.54s10.7,7.1,5.139,15.526" transform="translate(6.637 -227.943)" fill="#fff" stroke="#263238" stroke-linecap="round" stroke-linejoin="round" stroke-width="1"/><path d="M392.815,384.56h72.972s-9.828,74.152-12.685,95.609c-.512,3.9-3.617,5.822-7.375,5.822H344.56c-3.757,0-6.862-1.925-7.375-5.822C334.328,458.712,324.5,384.56,324.5,384.56Z" transform="translate(-318.336 -189.25)" fill="#263238"/><path d="M470.672,380.56H323.982a3.462,3.462,0,0,0-3.462,3.462V389.5a3.462,3.462,0,0,0,3.462,3.462h146.69a3.478,3.478,0,0,0,3.478-3.478v-5.481A3.462,3.462,0,0,0,470.672,380.56Z" transform="translate(-320.52 -191.46)" fill="#263238"/><line x1="74.012" transform="translate(65.659 201.521)" fill="none" stroke="#fff" stroke-linecap="round" stroke-linejoin="round" stroke-width="1"/><line x1="5.698" transform="translate(50.646 201.521)" fill="none" stroke="#fff" stroke-linecap="round" stroke-linejoin="round" stroke-width="1"/><line x2="10.356" transform="translate(16.489 201.521)" fill="none" stroke="#fff" stroke-linecap="round" stroke-linejoin="round" stroke-width="1"/><line x1="28.987" transform="translate(104.987 225.835)" fill="none" stroke="#fff" stroke-linecap="round" stroke-linejoin="round" stroke-width="1"/><line x1="7.763" transform="translate(80.673 225.835)" fill="none" stroke="#fff" stroke-linecap="round" stroke-linejoin="round" stroke-width="1"/><line x2="27.947" transform="translate(18.569 225.835)" fill="none" stroke="#fff" stroke-linecap="round" stroke-linejoin="round" stroke-width="1"/><line x2="5.17" transform="translate(21.674 246.018)" fill="none" stroke="#fff" stroke-linecap="round" stroke-linejoin="round" stroke-width="1"/><line x2="10.868" transform="translate(104.987 246.018)" fill="none" stroke="#fff" stroke-linecap="round" stroke-linejoin="round" stroke-width="1"/><line x1="17.855" transform="translate(35.648 265.69)" fill="none" stroke="#fff" stroke-linecap="round" stroke-linejoin="round" stroke-width="1"/><line x2="27.947" transform="translate(95.159 265.69)" fill="none" stroke="#fff" stroke-linecap="round" stroke-linejoin="round" stroke-width="1"/><line x1="9.316" transform="translate(119.488 283.281)" fill="none" stroke="#fff" stroke-linecap="round" stroke-linejoin="round" stroke-width="1"/><line x1="54.341" transform="translate(50.646 283.281)" fill="none" stroke="#fff" stroke-linecap="round" stroke-linejoin="round" stroke-width="1"/><line x2="8.291" transform="translate(24.252 283.281)" fill="none" stroke="#fff" stroke-linecap="round" stroke-linejoin="round" stroke-width="1"/><path d="M352.83,424.7a26.8,26.8,0,1,0,0-.005Z" transform="translate(-302.681 -181.789)" fill="#ff725e" stroke="#263238" stroke-linecap="round" stroke-linejoin="round" stroke-width="1"/><path d="M363.44,413.34v9.316s1.956,3.261,10.185,3.261,10.185-3.261,10.185-3.261V413.34" transform="translate(-296.818 -173.346)" fill="#fff" stroke="#263238" stroke-linecap="round" stroke-linejoin="round" stroke-width="1"/><path d="M375.029,409.01,360.9,414.258l14.129,5.248,14.129-5.248Z" transform="translate(-298.221 -175.738)" fill="#fff" stroke="#263238" stroke-linecap="round" stroke-linejoin="round" stroke-width="1"/><path d="M375.915,412.39,370,415.449v14.082" transform="translate(-299.108 -173.871)" fill="none" stroke="#263238" stroke-linecap="round" stroke-linejoin="round" stroke-width="1"/><path d="M355.75,423.078A22.125,22.125,0,1,0,377.875,401a22.125,22.125,0,0,0-22.125,22.078Z" transform="translate(-301.067 -180.165)" fill="none" stroke="#263238" stroke-linecap="round" stroke-linejoin="round" stroke-width="1"/><path d="M367.978,408.062s7.064-18.1,0-41.392" transform="translate(-291.171 -199.136)" fill="none" stroke="#263238" stroke-linecap="round" stroke-linejoin="round" stroke-width="3"/><path d="M370.354,354s-22.125,15.014,3.105,30.012C373.459,384.012,398.534,369.014,370.354,354Z" transform="translate(-293.547 -206.137)" fill="#52b487" stroke="#263238" stroke-linecap="round" stroke-linejoin="round" stroke-width="1"/><path d="M370.047,354s-3.8,5.7,0,10.868a15.526,15.526,0,0,1,2.22,11.722" transform="translate(-293.24 -206.137)" fill="none" stroke="#263238" stroke-linecap="round" stroke-linejoin="round" stroke-width="1"/></g></g></svg>